<?xml version="1.0" standalone="no"?>
<!DOCTYPE svg PUBLIC "-//W3C//DTD SVG 1.1//EN" "http://www.w3.org/Graphics/SVG/1.1/DTD/svg11.dtd" >
<svg xmlns="http://www.w3.org/2000/svg" xmlns:xlink="http://www.w3.org/1999/xlink" version="1.1">
<metadata></metadata>
<defs>
<font id="akzidenz-grotesk_bqsuper" horiz-adv-x="1323" >
<font-face units-per-em="2048" ascent="1638" descent="-410" />
<missing-glyph horiz-adv-x="641" />
<glyph horiz-adv-x="0" />
<glyph horiz-adv-x="682" />
<glyph unicode=" "  horiz-adv-x="641" />
<glyph unicode="&#x09;" horiz-adv-x="641" />
<glyph unicode="&#xa0;" horiz-adv-x="641" />
<glyph unicode="!" horiz-adv-x="598" d="M152 0v385h374v-385h-374zM152 1059v387h374v-391l-80 -527h-206z" />
<glyph unicode="&#x22;" horiz-adv-x="626" d="M39 1522h225l-71 -631h-80zM365 1522h223l-70 -631h-82z" />
<glyph unicode="#" horiz-adv-x="1368" d="M70 365v284h229l23 164h-201v285h239l50 348h290l-49 -348h170l47 348h291l-47 -348h182v-285h-223l-20 -164h196v-284h-237l-52 -365h-292l53 365h-168l-51 -365h-291l49 365h-188zM590 649h168l24 164h-170z" />
<glyph unicode="$" horiz-adv-x="1366" d="M49 147l217 259l68 -44q20 -13 42 -24t39.5 -18.5t39.5 -14t35 -10t33.5 -7t28.5 -4.5t27 -3t21 -2v270q-23 5 -141 35q-65 17 -109 32t-95.5 41.5t-89 66t-61.5 93.5q-32 77 -32 160q0 37 8 77.5t28.5 95.5t67.5 109t115 93q27 15 54.5 27t55 20t49.5 13.5t48 8.5 t40 4.5t36 3t26 1.5v133h197v-140q102 -12 149 -24q25 -6 48.5 -13t45 -15t38.5 -15t36.5 -16.5t31 -15.5t29 -16.5t24.5 -14.5t23 -14.5t19 -12.5l-213 -250q-58 40 -70 47q-43 26 -74 35t-87 16v-229q2 0 23.5 -3t30 -4.5t32.5 -5.5t38.5 -8t40 -11t45.5 -15t45.5 -19 t49.5 -24q223 -125 223 -353q0 -30 -4.5 -63.5t-20.5 -82t-41.5 -91.5t-72.5 -87.5t-109 -74.5q-44 -22 -95 -36.5t-86.5 -20t-98.5 -13.5v-206h-197v206q-158 19 -256 43.5t-149 49t-146 81.5zM461 1014q0 -36 33 -62q25 -17 106 -32v200q-34 0 -74 -18q-27 -13 -46 -36.5 t-19 -51.5zM797 283q46 11 73.5 25.5t47.5 47.5q16 29 16 56q0 13 -8 37q-11 27 -38.5 40.5t-90.5 28.5v-235z" />
<glyph unicode="%" horiz-adv-x="2048" d="M41 944q0 95 22.5 174.5t59.5 132.5t76 87t82 53q66 30 176 30q89 1 144 -18.5t97 -54.5q53 -43 87.5 -103t47 -122t16 -95t3.5 -65q0 -99 -25 -185t-73.5 -153.5t-129 -106.5t-184.5 -39q-101 0 -179.5 37t-125.5 101.5t-70.5 147t-23.5 179.5zM326 950q0 -90 8 -149 q11 -84 65 -109q20 -10 47 -10q54 0 82 41q41 58 41 235q0 166 -37 224q-26 45 -79 45q-27 0 -52 -13q-43 -25 -59 -88.5t-16 -175.5zM627 0l616 1446h189l-619 -1446h-186zM1190 444q0 95 22 175t59.5 132.5t76.5 86.5t82 53q73 33 174 33q91 0 145.5 -20t97.5 -56 q53 -43 87.5 -102t47 -121t16 -95.5t3.5 -66.5q0 -98 -25 -183.5t-74 -153.5t-130 -107t-185 -39q-81 0 -147 24t-112 66.5t-77.5 101.5t-46 127t-14.5 145zM1475 453q0 -105 8 -152q11 -80 63 -108q33 -11 49 -11q51 0 82 43q39 56 39 236q0 166 -35 221q-32 45 -82 45 q-26 0 -49 -12q-43 -23 -59 -87t-16 -175z" />
<glyph unicode="&#x26;" horiz-adv-x="1409" d="M35 436q0 103 27 166t71 111q53 62 102 95.5t134 74.5q-19 27 -29 42.5t-29 52t-28 79t-9 90.5q0 129 84 211q109 104 315 102h7q94 0 172 -20q59 -17 103.5 -46.5t69 -60.5t39 -68t19 -65t4.5 -57q0 -135 -94 -238q-39 -45 -88 -78q-32 -22 -102 -53q67 -86 174 -205 q3 7 11 28.5t11 30.5t8.5 28.5t10.5 42t10 51.5l309 -117q-46 -140 -70.5 -197t-70.5 -127q66 -33 123 -33q1 0 63 5l-2 -279q-138 -10 -168 -10q-122 0 -186 33q-13 7 -29.5 19.5t-28 21.5t-12.5 10q-46 -28 -69 -39q-139 -68 -316 -68q-236 0 -385 133q-91 81 -123 166 q-28 77 -28 168zM420 442q0 -32 10 -61q6 -19 17.5 -37t31 -38.5t52.5 -33t73 -12.5q16 0 31 2t29.5 5.5t25 7t24 9.5t18.5 8.5t16 8.5l12 6q-60 74 -103 129q-26 33 -72.5 95.5t-60.5 80.5q-4 -3 -11 -9t-11 -9q-82 -64 -82 -152zM586 1135q0 -28 15 -58.5t52 -79.5 q25 14 41 24.5t38.5 28t34 39t11.5 44.5q0 19 -10 36q-21 48 -92 48q-90 0 -90 -82z" />
<glyph unicode="'" horiz-adv-x="303" d="M39 1522h225l-71 -631h-80z" />
<glyph unicode="(" horiz-adv-x="704" d="M55 631q0 420 258 743q116 144 273 271l141 -144l-27 -33q-88 -109 -134 -185t-81 -171q-77 -202 -77 -459q0 -247 71 -448q41 -117 99 -205.5t149 -173.5l-131 -166q-46 36 -51 41q-152 125 -238 223q-252 293 -252 707z" />
<glyph unicode=")" horiz-adv-x="704" d="M-23 -205l27 33q87 106 132 182t83 176q78 210 78 459q0 529 -320 828l132 165q10 -8 27 -22.5t24 -18.5q155 -126 237 -225q252 -296 252 -704q0 -285 -117 -525q-58 -120 -147.5 -228t-234.5 -234l-31 -27z" />
<glyph unicode="*" horiz-adv-x="894" d="M27 1042l71 244l215 -61l-2 219h256v-219l217 73l82 -241l-204 -70l124 -160l-198 -157l-139 176l-132 -178l-206 151l120 164z" />
<glyph unicode="+" horiz-adv-x="1482" d="M186 528v314h351v387h409v-387h350v-314h-350v-397h-409v397h-351z" />
<glyph unicode="," horiz-adv-x="512" d="M70 0v385h372v-309q0 -72 -9.5 -128.5t-33 -110t-67.5 -94.5t-109 -69q-48 -19 -153 -36v180q71 24 98 64t29 118h-127z" />
<glyph unicode="-" horiz-adv-x="765" d="M59 471v350h646v-350h-646z" />
<glyph unicode="." horiz-adv-x="512" d="M70 0v385h372v-385h-372z" />
<glyph unicode="/" horiz-adv-x="1024" d="M2 0l621 1446h395l-617 -1446h-399z" />
<glyph unicode="0" d="M41 682q0 270 106 459q93 162 259 241q122 55 276 52q214 0 358 -119q44 -36 82.5 -85.5t74.5 -121t57.5 -172.5t21.5 -217q0 -106 -18.5 -202.5t-50 -168.5t-63.5 -122.5t-67 -88.5q-27 -29 -62.5 -55.5t-88.5 -54.5t-127 -45t-156 -17q-144 0 -250 49q-160 72 -256 242 t-96 426zM459 655q0 -220 49 -309q28 -51 70.5 -71.5t78.5 -20.5q74 0 125 63q78 101 78 369q0 92 -10 205l-2 16q-1 16 -3.5 32t-6.5 37t-11 43t-16 40q-26 54 -67.5 75t-79.5 21q-66 0 -121 -55q-16 -19 -35 -56q-49 -107 -49 -389z" />
<glyph unicode="1" d="M225 899v318q1 0 23 -0.5t37.5 -0.5t44 3t51.5 8t51 16t51 27q39 27 66 61q19 28 35 76h364v-1407h-422v934q-4 -1 -17.5 -6.5t-21.5 -7.5q-59 -18 -262 -21z" />
<glyph unicode="2" d="M55 0v266q191 125 334 230q178 128 273 215q37 34 57.5 55.5t46.5 55.5t38 70.5t11 76.5q0 35 -10 65q-36 99 -158 99q-34 0 -63 -8.5t-57 -30t-44 -65t-16 -105.5q0 -55 14 -103l-415 51q0 26 4 80q9 120 40 194q33 81 93 138q150 143 479 143q141 0 238 -28 q155 -43 238 -153.5t83 -270.5q0 -190 -141 -342q-65 -70 -163 -137t-286 -174q216 6 217 6h355v-328h-1168z" />
<glyph unicode="3" d="M6 422l391 74q3 -34 9 -62q22 -111 114 -151q62 -25 117 -23q21 0 40.5 2t52 12t56 27.5t41 53t17.5 83.5q0 31 -8 49q-37 99 -230 99q-59 0 -102 -11v279q10 -1 28.5 -2.5t33.5 -2.5t30 -1q34 0 68 6q79 9 117 41q21 18 32 41q14 32 14 65q0 60 -44 104t-146 44 q-37 0 -67 -9.5t-49 -22t-34.5 -35.5t-22.5 -37.5t-13.5 -41.5t-7.5 -34.5t-3 -28.5l-387 25q22 131 56 204q127 263 555 263q112 0 200 -19q20 -4 37.5 -9t54.5 -17t69 -30.5t67.5 -44t64.5 -63t47 -82.5q23 -62 23 -131q0 -177 -133 -262q-39 -24 -93 -45q74 -19 115 -41 q156 -85 156 -272q0 -81 -32.5 -161.5t-88.5 -135.5q-39 -39 -117 -78q-146 -70 -399 -70q-36 0 -98 4q-318 22 -447 220q-33 50 -50.5 100.5t-33.5 126.5z" />
<glyph unicode="4" d="M39 293v280l639 836h418v-838h178v-278h-178v-293h-402v293h-655zM375 571h319l4 324q0 58 7 133q-41 -64 -91 -133z" />
<glyph unicode="5" d="M33 426l418 41q0 -68 8 -98q12 -45 55.5 -83t122.5 -38q96 0 152.5 60t56.5 159q-1 102 -58.5 159.5t-156.5 57.5q-84 0 -131 -39q-20 -16 -41 -51l-353 43l80 762h1043l-29 -293h-717l-18 -197q39 22 55 27q91 35 217 35q107 0 209 -35q150 -50 238 -166t88 -272 q0 -132 -64 -252q-25 -47 -58.5 -86t-65.5 -66t-75.5 -49t-75 -35t-77.5 -22.5t-70 -14t-65 -6.5t-50.5 -2h-37.5q-240 0 -393 101q-88 59 -140 147q-18 33 -31.5 73t-19 62.5t-16.5 77.5z" />
<glyph unicode="6" d="M37 666q0 262 98 444q57 104 144 178q168 150 438 148q223 0 366 -105q1 -1 11 -9t17.5 -15t19 -17.5t22.5 -23.5t21 -27q38 -51 75 -168l-399 -59q-5 37 -19 65q-40 82 -145 82q-45 0 -101.5 -24.5t-97.5 -87.5q-25 -36 -38.5 -85.5t-16.5 -82t-6 -93.5q40 48 63 64 q39 30 122.5 57t179.5 27q108 0 206 -39q135 -54 211 -168.5t76 -261.5q0 -135 -70 -248q-80 -127 -224.5 -188.5t-307.5 -61.5q-154 0 -293 56q-101 42 -172 109.5t-109 154.5t-54.5 178.5t-16.5 200.5zM463 453q2 -93 60 -153t149 -60q64 0 102 24q45 22 71 64t31 70.5 t5 56.5q0 55 -23 104q-47 102 -182 109q-42 0 -88 -19q-39 -16 -66.5 -43t-39 -58t-15.5 -53t-4 -42z" />
<glyph unicode="7" d="M88 1092v319h1129v-270q-52 -52 -91 -99q-135 -154 -237 -364q-32 -65 -58 -126t-45.5 -122t-32.5 -101.5t-25.5 -101t-17 -81t-14 -81.5t-10.5 -65h-440q35 159 73 266q104 310 312 633q45 72 135 193h-678z" />
<glyph unicode="8" d="M37 399q0 60 16.5 113t44 90t50.5 59t47 39q32 19 86 41q-57 37 -78 56q-45 42 -69.5 105t-24.5 128q0 96 53 184q130 213 502 213q50 0 75 -2q284 -13 404 -161q80 -97 80 -230q0 -145 -88 -233q-19 -19 -74 -58q67 -32 102 -59q57 -45 88 -120.5t31 -153.5 q0 -221 -203 -344q-75 -45 -172.5 -70t-249.5 -25q-59 0 -90 2q-22 1 -44.5 3t-68 9t-89.5 22t-92.5 37t-93 59.5t-77.5 84.5q-65 91 -65 211zM449 412q0 -28 9 -56t30.5 -56.5t65 -46t103.5 -17.5t104.5 18t67 46.5t33 57.5t10.5 58t-10.5 57.5t-33 57t-67 46.5t-104.5 17 q-124 0 -178 -82q-30 -46 -30 -100zM479 1016q0 -32 16 -64t60 -58t109 -26q50 0 87 14.5t55.5 38.5t27 47.5t8.5 47.5q0 37 -17 65q-39 74 -161 78q-126 2 -166 -76q-19 -34 -19 -67z" />
<glyph unicode="9" d="M35 936q0 32 4.5 65.5t18.5 84t47.5 103t82.5 95.5q68 60 181 105t268 45q252 0 422 -127q55 -39 108 -115q115 -171 115 -459q0 -256 -100 -442q-56 -103 -142 -180q-167 -146 -440 -146q-224 0 -364 103q-62 49 -91 92q-37 50 -75 168l399 59q6 -40 18 -65 q40 -82 146 -82q44 0 100 25t98 87q25 36 38.5 84.5t17 84.5t4.5 91q-33 -41 -62 -63q-42 -30 -124 -56.5t-177 -25.5q-114 0 -209 37q-133 54 -209.5 170t-74.5 262zM438 946q0 -55 23 -104q21 -45 59.5 -71.5t66.5 -32t54 -5.5q43 0 90 17q39 16 65.5 43t38 58.5t15.5 54 t4 42.5q-2 93 -59 153t-148 60q-54 0 -102 -24q-34 -18 -57.5 -45.5t-33 -57t-13 -50t-3.5 -38.5z" />
<glyph unicode=":" horiz-adv-x="598" d="M152 0v385h372v-385h-372zM152 676v385h372v-385h-372z" />
<glyph unicode=";" horiz-adv-x="598" d="M152 0v385h372v-309q0 -72 -9.5 -128.5t-33 -110t-67.5 -94.5t-109 -69q-48 -19 -153 -36v180q71 24 98 64t29 118h-127zM152 676v385h372v-385h-372z" />
<glyph unicode="&#x3c;" horiz-adv-x="1482" d="M229 528v367l953 442v-376l-582 -236l582 -254v-397z" />
<glyph unicode="=" horiz-adv-x="1482" d="M205 254v315h1075v-315h-1075zM205 723v317h1075v-317h-1075z" />
<glyph unicode="&#x3e;" horiz-adv-x="1482" d="M287 940l2 397l950 -454v-367l-950 -442v377l581 235z" />
<glyph unicode="?" horiz-adv-x="1236" d="M94 1083q11 41 21 71t45 84t86 97q88 76 191.5 105.5t236.5 29.5q129 0 219 -24q141 -36 231 -132t90 -237q0 -139 -90 -235q-25 -28 -68 -58.5t-96.5 -64.5t-76.5 -51q-24 -16 -53.5 -42t-41.5 -46q-10 -17 -18 -52l-354 2q8 81 20 113q37 98 195 211q29 21 42 30.5 t42.5 34.5t44.5 44t28 46.5t13 53.5q0 20 -7.5 41t-23.5 42t-48 34.5t-75 13.5q-47 0 -90 -18q-31 -15 -52.5 -37t-33.5 -53t-17.5 -55t-11.5 -64zM403 0v385h375v-385h-375z" />
<glyph unicode="@" horiz-adv-x="1740" d="M63 504q0 196 75.5 373t204 305t307 203t376.5 75q290 0 462.5 -164.5t172.5 -441.5q0 -191 -69.5 -357t-186 -264t-250.5 -98q-72 0 -122.5 37.5t-63.5 101.5q-113 -137 -254 -137q-133 0 -216 96.5t-83 251.5q0 153 63 288.5t168.5 216.5t224.5 81q56 0 99 -18 q38 -15 62.5 -36.5t58.5 -68.5l20 82h213l-86 -401q-35 -172 -35 -226q0 -51 35 -51t94 82q56 80 88.5 186.5t32.5 210.5q0 165 -72 267q-60 85 -162 130.5t-231 45.5q-144 0 -276 -60.5t-227.5 -162t-152.5 -242t-57 -293.5q0 -264 167.5 -420.5t447.5 -156.5 q341 0 651 286l117 -145q-89 -77 -139 -115t-119 -78q-247 -141 -520 -141q-258 0 -465 119q-353 201 -353 639zM659 504q0 -74 33 -117t90 -43q40 0 82 26t74 72q35 50 58.5 123.5t23.5 134.5v7q0 72 -36 114.5t-95 42.5q-89 0 -159.5 -109.5t-70.5 -250.5z" />
<glyph unicode="A" horiz-adv-x="1622" d="M-2 0l553 1446h520l541 -1446h-492l-63 203h-504l-64 -203h-491zM651 524h312l-154 510z" />
<glyph unicode="B" horiz-adv-x="1492" d="M90 0v1446h856q68 0 123 -8q70 -10 138.5 -39t111.5 -74q37 -43 57 -86q37 -73 37 -160q0 -23 -4.5 -51t-16.5 -68.5t-40.5 -82.5t-69.5 -74q-40 -28 -96 -53l61 -19q60 -19 115 -74q90 -94 90 -243q0 -26 -3 -54.5t-13 -73.5t-35 -91t-62 -82q-39 -39 -100 -66 q-103 -47 -264 -47h-885zM545 311h286q91 0 132 58q24 34 24 82q0 43 -20 77q-40 66 -146 66h-276v-283zM547 897h252q47 0 80.5 10t52.5 43q16 25 16 68q0 45 -18 72q-32 51 -121 51h-262v-244z" />
<glyph unicode="C" horiz-adv-x="1536" d="M55 715q0 273 150 483q213 301 602 301q116 0 220 -27t179 -71.5t122.5 -84t84.5 -81.5q44 -50 94 -139l-383 -191q-3 7 -10 21.5t-10 21.5q-13 26 -21.5 41t-35 49t-53.5 54t-73 37q-43 16 -92 16h-6q-92 0 -166 -51q-137 -102 -137 -353q0 -255 133 -360 q75 -57 172 -57q168 0 260 155q18 36 33 82l391 -188q-61 -112 -112 -172q-38 -43 -85.5 -81t-120 -78t-172.5 -63.5t-214 -23.5q-297 0 -490 166q-69 58 -120 131t-76.5 136t-41 133t-19 111.5t-3.5 82.5z" />
<glyph unicode="D" horiz-adv-x="1536" d="M90 0v1446h492q66 0 192 -4q176 -7 295.5 -39.5t218.5 -126.5q195 -191 195 -547q0 -113 -23 -225q-94 -382 -401 -471q-54 -16 -127 -24t-111.5 -8.5t-128.5 -0.5h-602zM549 332h174q82 0 133 26q48 23 82.5 68.5t50 87t24 96t9 73t0.5 40.5q0 18 -0.5 33.5t-7 66 t-18.5 90t-39.5 84.5t-65.5 70q-35 22 -70 31.5t-100 9.5h-172v-776z" />
<glyph unicode="E" d="M90 0v1446h1145v-318h-686v-215h641v-313h-643v-287h749v-313h-1206z" />
<glyph unicode="F" horiz-adv-x="1280" d="M90 0v1446h1143v-318h-688v-260h643v-313h-643v-555h-455z" />
<glyph unicode="G" horiz-adv-x="1622" d="M55 713q0 36 2.5 72.5t13.5 98.5t30 119t56 125.5t87 126.5q216 250 581 250q188 0 363 -69.5t278 -206.5q48 -65 86 -170l-409 -115q-14 68 -37 103q-24 38 -62 63t-78 34.5t-62.5 12t-41.5 2.5q-99 0 -176 -45q-166 -94 -166 -383q0 -100 19 -172q24 -81 80.5 -144.5 t134.5 -90.5q64 -19 120 -19q123 0 199 62q29 22 47 53q15 29 27 90h-268v291h663v-801h-340v100q-53 -38 -94 -61q-61 -33 -140 -52t-122.5 -22.5t-79.5 -3.5q-163 0 -303 64q-40 19 -79.5 46t-88.5 68.5t-89.5 97.5t-75.5 124.5t-55 159.5t-20 192z" />
<glyph unicode="H" horiz-adv-x="1536" d="M90 0v1446h457v-526h436v526h461v-1446h-461v557h-436v-557h-457z" />
<glyph unicode="I" horiz-adv-x="641" d="M90 0v1446h459v-1446h-459z" />
<glyph unicode="J" horiz-adv-x="854" d="M0 0v356q62 -12 117 -12q140 0 170 74q16 37 16 92v936h457v-1045q0 -86 -10 -135q-29 -160 -168 -223q-54 -23 -114 -33t-163 -10h-305z" />
<glyph unicode="K" horiz-adv-x="1579" d="M90 0v1446h457v-547l454 547h558l-502 -549l538 -897h-514l-319 578l-215 -236v-342h-457z" />
<glyph unicode="L" horiz-adv-x="1110" d="M90 0v1446h457v-1081h559v-365h-1016z" />
<glyph unicode="M" horiz-adv-x="1961" d="M88 0v1446h655l236 -909l231 909h656v-1446h-436l4 1049l-289 -1049h-340l-285 1049l2 -1049h-434z" />
<glyph unicode="N" horiz-adv-x="1579" d="M90 0v1446h485l490 -842l-6 842h428v-1446h-494l-481 840l4 -840h-426z" />
<glyph unicode="O" horiz-adv-x="1662" d="M53 723q0 38 3 77.5t16 105.5t34.5 126.5t63.5 131t98 126.5q214 209 563 209q348 0 551 -199q39 -38 72.5 -83.5t70.5 -115t59 -164.5t22 -202q0 -47 -6.5 -100.5t-26 -138t-68.5 -173.5t-121 -161q-209 -209 -561 -209q-356 0 -559 207q-103 103 -157 251.5t-54 311.5z M512 723q0 -198 80 -299q42 -51 96 -76q70 -29 143 -29q132 0 211 91q103 110 103 327q0 263 -154 355q-73 43 -160 43q-133 0 -215 -86q-104 -108 -104 -326z" />
<glyph unicode="P" horiz-adv-x="1449" d="M90 0v1446h825q127 0 217.5 -21t167.5 -88q150 -129 150 -362q0 -116 -35 -207q-9 -24 -25.5 -54t-46 -71t-77 -77.5t-103.5 -57.5q-96 -37 -262 -37h-352v-471h-459zM549 774h260q45 0 82 12q40 14 72 56t32 119q0 61 -22 100q-45 82 -166 82h-258v-369z" />
<glyph unicode="Q" horiz-adv-x="1662" d="M55 725q0 107 22 203.5t54 163.5t77 126t83 93.5t80 62.5q185 127 471 127q184 0 315 -51q141 -56 244 -167.5t154 -251t51 -290.5q0 -39 -4.5 -89.5t-26 -140.5t-57.5 -161q-9 -18 -24.5 -42.5t-27 -42t-12.5 -19.5q82 -55 128 -74.5t101 -24.5l-141 -317 q-32 6 -41.5 7.5t-48.5 12.5t-64.5 22.5t-64 34t-72.5 50.5q-11 9 -22 19.5t-24.5 25t-20.5 21.5q-76 -30 -78 -31q-130 -41 -291 -41q-188 0 -336 61q-142 61 -239 173t-141 248t-44 292zM518 717q0 -112 31 -203q17 -51 46 -88.5t57.5 -57.5t64 -31.5t59.5 -14.5t49 -3 q133 0 215 95q101 112 101 325q0 201 -94 305q-45 49 -93 68q-53 23 -125 23q-70 0 -124 -27q-53 -25 -92.5 -70.5t-67 -128.5t-27.5 -192z" />
<glyph unicode="R" horiz-adv-x="1449" d="M90 0v1446h782q63 0 125 -6q249 -24 353 -197q67 -115 67 -260q0 -106 -42.5 -194.5t-127.5 -145.5q-39 -25 -127 -59l355 -584h-512l-281 510h-133v-510h-459zM549 807h190q37 0 64.5 3.5t59 13t53.5 31.5t34 56q11 44 11 64q0 55 -29 102q-17 24 -43 37q-50 29 -154 29 h-186v-336z" />
<glyph unicode="S" horiz-adv-x="1492" d="M14 276l351 224q42 -66 69 -88q57 -50 153 -76.5t181 -26.5q99 0 159 29t60 82q0 5 -10 35q-18 36 -70 53q-23 8 -59.5 15.5t-101 19.5t-111.5 22q-262 51 -375 150q-48 41 -87 115q-38 72 -38 173v5q0 123 53 219q30 55 76.5 99.5t93 71.5t106 47t102 28.5t95 13.5 t70.5 5.5t43 0.5q329 0 541 -156q38 -27 110 -100l-288 -240q-23 32 -41 47q-58 54 -150 77.5t-188 23.5q-64 0 -109 -19q-57 -28 -57 -75q0 -40 37 -66q43 -27 162 -45q199 -31 329 -74q26 -8 46 -15.5t55 -25t61 -37t56 -51t50 -68.5t33 -88.5t13 -111.5q0 -76 -20 -142 t-53 -112.5t-60.5 -74t-57.5 -50.5q-181 -133 -491 -133q-174 0 -318.5 36.5t-265.5 127.5q-79 59 -154 155z" />
<glyph unicode="T" horiz-adv-x="1193" d="M-2 1090v356h1192v-356h-367v-1090h-456v1090h-369z" />
<glyph unicode="U" horiz-adv-x="1492" d="M86 588v858h459v-903q0 -72 14 -111q13 -39 38.5 -65t56.5 -36t50.5 -13t38.5 -3q18 0 37.5 3t50.5 13t58 35.5t41 63.5q14 37 14 113v903h461v-866q0 -139 -45 -256q-36 -95 -102 -166.5t-150 -113.5t-176.5 -62.5t-192.5 -20.5q-186 0 -340 68q-205 91 -276 276 q-21 56 -29 114t-8 169z" />
<glyph unicode="V" horiz-adv-x="1449" d="M0 1446h467l258 -887l256 887h469l-489 -1446h-478z" />
<glyph unicode="W" horiz-adv-x="2134" d="M-4 1446h446l205 -944l221 944h387l232 -944l199 944h444l-361 -1446h-489l-219 901l-213 -901h-492z" />
<glyph unicode="X" horiz-adv-x="1705" d="M-4 0l559 776l-469 670h537l229 -397l233 397h523l-457 -668l555 -778h-539l-315 520l-320 -520h-536z" />
<glyph unicode="Y" horiz-adv-x="1622" d="M-6 1446h528l285 -481l278 481h529l-582 -838v-608h-459v608z" />
<glyph unicode="Z" horiz-adv-x="1366" d="M4 0v289l741 811h-698v346h1292v-295l-729 -799h727v-352h-1333z" />
<glyph unicode="[" horiz-adv-x="612" d="M90 -295v1890h492v-194h-172v-1501h172v-195h-492z" />
<glyph unicode="\" horiz-adv-x="1024" d="M2 1446h399l617 -1446h-395z" />
<glyph unicode="]" horiz-adv-x="612" d="M29 -100h174v1501h-174v194h493v-1890h-493v195z" />
<glyph unicode="^" horiz-adv-x="1482" d="M115 571l446 875h377l432 -875h-403l-209 523l-217 -523h-426z" />
<glyph unicode="_" horiz-adv-x="1024" d="M-20 -231h1064v-261h-1064v261z" />
<glyph unicode="`" horiz-adv-x="641" d="M25 1483h436l155 -281h-260z" />
<glyph unicode="a" horiz-adv-x="1236" d="M39 317q0 177 145 275q41 27 99 46t96 25.5t108 16.5q121 16 183 29q58 13 82 20q0 30 -7 49q-10 36 -40.5 55t-96.5 19q-31 0 -61 -6q-14 -3 -25 -8.5t-18.5 -13.5t-13 -14t-9.5 -16.5t-5.5 -15t-4 -15t-2.5 -11.5l-395 -11q2 13 7 35t7 29q27 109 117 180 q141 111 442 111q378 0 473 -199q18 -36 24.5 -76t6.5 -112v-578q0 -55 7.5 -77.5t29.5 -53.5h-416v82q-42 -31 -78 -49q-113 -58 -274 -58q-98 0 -170 27q-101 39 -156 122.5t-55 192.5zM430 330q0 -30 26 -56t79 -26q44 0 102 28q34 18 57.5 43.5t34 45t16 51.5t5.5 41v37 q-103 -35 -160 -50q-108 -24 -141 -65q-19 -29 -19 -49z" />
<glyph unicode="b" horiz-adv-x="1280" d="M86 0v1446h420l2 -459q29 29 55 47q86 58 213 58q200 0 330 -142q133 -148 133 -397q0 -32 -2 -64t-15 -101t-36 -126t-71.5 -121t-115.5 -104q-107 -64 -239 -64t-221 60q-18 14 -45 45v-78h-408zM496 532q0 -166 69 -221q38 -32 94 -32q62 0 107 45q57 60 57 208 q0 134 -45 197q-24 35 -57 48.5t-59 13.5q-51 0 -91 -31q-46 -37 -60.5 -94.5t-14.5 -133.5z" />
<glyph unicode="c" horiz-adv-x="1181" d="M37 537q0 109 35 213q24 71 62.5 128t80 93.5t93 63.5t94 40.5t91.5 21.5t77 9.5t59 1.5q212 0 362 -102q64 -48 103 -95q24 -31 53 -80l-320 -180q-12 39 -20 56q-10 21 -25.5 41.5t-52.5 41.5t-84 21q-52 0 -90 -27q-35 -24 -58 -65t-30.5 -87.5t-9.5 -67t-2 -40.5 q0 -123 49 -184q18 -26 59 -43q48 -16 76 -16q131 2 185 176q1 3 1 4l324 -178q-38 -75 -68 -113q-27 -35 -65.5 -68t-97 -67.5t-141 -55t-175.5 -20.5q-136 0 -242 45q-62 26 -113 65t-84 79.5t-57.5 89t-37 89t-20 85t-9.5 72t-2 53.5z" />
<glyph unicode="d" horiz-adv-x="1280" d="M39 555q0 136 37 238q12 33 29.5 65.5t54 77t81 77t114 56t149.5 23.5q122 0 211 -58q23 -15 57 -47v459h420v-1446h-408l-2 76l-8 -8q-7 -9 -16.5 -18.5t-18.5 -16.5q-82 -60 -223 -60q-132 0 -229 60q-69 39 -119.5 102.5t-74.5 123t-37.5 127t-15.5 104.5q-1 25 -1 45 v20zM455 532q0 -147 59 -208q42 -45 107 -45q49 0 81 26q49 34 64.5 93t15.5 137q0 116 -32 174q-26 46 -64 64t-70 18q-45 0 -88 -31q-73 -57 -73 -228z" />
<glyph unicode="e" horiz-adv-x="1236" d="M35 537q0 77 16 147t42.5 121t51.5 85t52 60q53 51 119 85t128.5 48t101.5 18.5t72 4.5q39 0 80.5 -5t107.5 -20t133.5 -54t121.5 -97q76 -82 113 -197q30 -95 30 -278h-739q0 -49 10 -82q7 -19 17 -36.5t29 -37.5t51 -32q29 -11 65 -11h6q75 0 121 41q12 10 23 21.5 t19 24t13 20.5t11 18.5t6 11.5l346 -145q-28 -44 -52 -72q-84 -97 -194 -151q-139 -68 -313 -68q-143 0 -252 45q-160 66 -248 211.5t-88 323.5zM469 678h307q-1 3 -2 13.5t-2.5 22t-5.5 23.5q-13 40 -42 64.5t-52 30.5t-45 6q-36 -2 -66 -17q-73 -33 -92 -143z" />
<glyph unicode="f" horiz-adv-x="768" d="M-2 807v229h158v105q0 82 20 141q30 84 121.5 136t249.5 52q85 0 221 -28v-289q-39 14 -78 14q-32 0 -55 -9.5t-34 -20.5t-16.5 -31.5t-6 -31t-0.5 -30.5v-8h190v-229h-190v-807h-422v807h-158z" />
<glyph unicode="g" horiz-adv-x="1280" d="M37 561q0 32 3.5 66t14.5 94.5t41 122.5t76 110q65 70 162 103t203 33q149 0 237 -70q24 -18 55 -59l-2 100h365v-1002q-1 -10 -2 -29.5t-2 -29.5q-8 -178 -123 -274q-148 -125 -477 -125q-96 0 -172 8q-111 13 -193 45.5t-131 105.5q-30 47 -39.5 98t-11.5 128h383 q0 -72 33 -101q41 -37 133 -37q93 0 145 39q51 38 51 142q0 23 1 66.5t1 64.5q-21 -34 -36 -45q-79 -64 -238 -64q-183 0 -299 90q-73 55 -125.5 158t-52.5 262zM438 551q0 -124 47 -174q19 -22 52 -35q24 -12 67 -12q45 0 80 16q94 41 94 221q0 75 -17.5 131t-70.5 82 q-34 17 -69 17h-7q-36 0 -75 -17q-101 -50 -101 -229z" />
<glyph unicode="h" d="M84 0v1446h420v-492q27 34 47 54q40 38 114 68t177 30q83 0 162 -26.5t133 -80.5q68 -68 86 -170q12 -61 12 -137v-692h-422v606q0 29 -6 56q-8 39 -41.5 67.5t-103.5 28.5q-124 0 -150 -99q-6 -20 -6 -61v-598h-422z" />
<glyph unicode="i" horiz-adv-x="598" d="M86 0v1061h422v-1061h-422zM86 1165v281h422v-281h-422z" />
<glyph unicode="j" horiz-adv-x="598" d="M-72 -395l2 307q52 0 68 2q26 4 44 14.5t26.5 21t13.5 27t5.5 26t0.5 24.5v1034h422v-1045q0 -98 -4 -145q-10 -79 -35 -122q-20 -35 -51 -60q-105 -86 -375 -86q-19 0 -58.5 1t-58.5 1zM88 1165v281h422v-281h-422z" />
<glyph unicode="k" d="M84 0v1446h422v-688l289 303h514l-404 -383l422 -678h-481l-230 403l-110 -106v-297h-422z" />
<glyph unicode="l" horiz-adv-x="598" d="M84 0v1446h424v-1446h-424z" />
<glyph unicode="m" horiz-adv-x="2048" d="M84 0v1061h408v-152q32 55 57 80q101 96 276 96q215 0 316 -114q16 -16 53 -82q18 43 55 80q112 116 303 116h7q83 0 139 -16q182 -48 237 -215q21 -64 21 -184v-670h-422v555v8q0 23 -0.5 38t-8 44t-22 47t-44.5 32.5t-73 14.5q-17 0 -34 -3t-41 -12t-43.5 -31.5 t-28.5 -55.5q-6 -25 -6 -72v-565h-422v573q0 41 -6 66q-9 32 -27.5 53.5t-41 30.5t-39.5 12.5t-33 3.5q-22 0 -45.5 -5t-55.5 -29t-45 -64q-10 -30 -10 -66v-575h-424z" />
<glyph unicode="n" d="M84 0v1061h397v-141q27 39 51 63q107 107 299 107q168 0 271 -89q79 -64 106 -184q15 -66 15 -147v-670h-422v580q0 46 -6 71q-24 88 -138 88q-32 0 -57.5 -8t-41 -18.5t-27 -28.5t-16.5 -31t-8 -34.5t-3 -29.5v-24v-565h-420z" />
<glyph unicode="o" d="M41 522q0 244 145 402q68 74 188 128q117 54 288 54h6q33 0 71 -3.5t103.5 -16t134 -44t123.5 -79.5q86 -75 132 -193t46 -242q0 -31 -4 -66t-16 -90.5t-42.5 -115.5t-74.5 -109q-69 -76 -193 -132t-303 -56q-248 0 -407 125q-34 27 -64.5 62t-62.5 88t-51 127.5 t-19 160.5zM461 535q0 -140 53 -213q25 -37 64 -52q28 -14 79 -14q80 0 127 47q68 68 68 236q0 215 -127 260q-31 10 -70 10q-82 -2 -133 -59q-61 -65 -61 -215z" />
<glyph unicode="p" horiz-adv-x="1280" d="M86 -385v1446h412v-82q23 29 41 41q88 70 239 70q120 0 211.5 -46.5t145 -127t80 -179t26.5 -213.5t-27 -212t-82 -174t-146.5 -121t-211.5 -44q-140 0 -229 60q-1 1 -45 39v-457h-414zM496 524q0 -52 4 -89t25 -81t59 -65q35 -19 73 -19q42 0 82 23q86 53 86 227 q0 145 -45 205q-24 32 -56 44.5t-56 12.5q-45 0 -82 -20q-31 -17 -50.5 -44t-27 -63t-10 -63.5t-2.5 -67.5z" />
<glyph unicode="q" horiz-adv-x="1280" d="M39 524q0 112 20 189q7 29 15 56t25.5 66.5t39.5 72.5t57.5 68t77.5 59t101.5 39.5t128.5 15.5q144 0 227 -62q25 -18 53 -49v82h412v-1446h-416v457q-2 -1 -9 -7.5t-17.5 -16t-18.5 -15.5q-85 -60 -229 -60q-120 0 -212 44t-146.5 121.5t-81.5 174.5t-27 211zM455 518 q0 -169 82 -221q40 -27 86 -27q33 0 75 21q53 31 70.5 92.5t17.5 142.5q0 49 -3.5 83.5t-20.5 76.5t-49 66q-42 30 -94 30h-7q-26 0 -61 -14q-50 -25 -73 -85t-23 -165z" />
<glyph unicode="r" horiz-adv-x="854" d="M84 0v1061h405v-92q33 30 58 45q64 45 128.5 57t166.5 12v-356q-40 4 -62 4q-12 -1 -35.5 1t-57 -5t-66 -18.5t-62 -40t-43.5 -68.5q-12 -35 -12 -100v-500h-420z" />
<glyph unicode="s" horiz-adv-x="1110" d="M-2 172l238 215q38 -34 59 -51q126 -90 268 -90q43 0 70 12q21 9 31 25.5t10 29.5q0 17 -8 25q-10 15 -26.5 23.5t-28.5 11.5t-47 8t-52 8q-103 17 -209 53q-84 28 -136 65.5t-85 106.5q-29 66 -29 127q0 96 62 189q123 174 420 174q102 0 211.5 -22t191.5 -64 q41 -21 102 -68l-227 -207q-1 1 -15 10t-22.5 14.5t-27.5 16.5t-34.5 18t-38 16.5t-42.5 14.5t-44.5 9t-47.5 4q-37 0 -60 -10q-30 -14 -30 -45q0 -17 10 -27.5t18 -13.5q15 -8 111 -31q41 -10 102.5 -24.5t89.5 -21.5t62.5 -18.5t58.5 -23.5q25 -13 49.5 -32.5t53.5 -52 t47 -83t18 -109.5q0 -96 -43 -172q-34 -62 -90 -107t-107 -66.5t-113 -33.5t-91.5 -14t-59.5 -2q-248 0 -452 129q-22 14 -117 84z" />
<glyph unicode="t" horiz-adv-x="768" d="M0 807v229h147l5 334h423l-2 -334h181v-229h-185l-6 -408q0 -21 3 -36t13.5 -34t36 -29.5t64.5 -10.5q35 0 76 8v-289l-38 -5q-39 -5 -67 -8t-75 -6t-87 -3q-156 0 -233.5 51.5t-103.5 140.5q-13 51 -13 115l6 514h-145z" />
<glyph unicode="u" d="M80 416v645h424v-578v-25.5t2.5 -29t7.5 -34.5t16.5 -30.5t27 -28t41 -17t58.5 -7.5q72 0 109 37q43 45 43 152v561h424v-1061h-402v156q-1 -2 -4.5 -9.5t-5 -10t-5 -9t-5.5 -10t-6.5 -10t-8.5 -11t-9.5 -11t-12 -12.5t-14.5 -12q-105 -88 -279 -88t-280 90 q-74 64 -103 173q-18 64 -18 180z" />
<glyph unicode="v" horiz-adv-x="1150" d="M-6 1061h446l129 -655l138 655h442l-352 -1061h-449z" />
<glyph unicode="w" horiz-adv-x="1748" d="M-2 1061h430l131 -678l129 678h363l135 -676l125 676h432l-318 -1061h-419l-140 649l-129 -649h-420z" />
<glyph unicode="x" horiz-adv-x="1236" d="M-8 0l356 557l-315 504h452l131 -318l140 318h454l-321 -502l352 -559h-450l-175 344l-172 -344h-452z" />
<glyph unicode="y" horiz-adv-x="1193" d="M0 1061h440l152 -692q158 680 160 692h438l-387 -1122q-21 -59 -36.5 -96t-46 -83t-67.5 -77q-30 -24 -60 -38.5t-70 -20t-63 -6.5t-77 -1q-89 0 -107 2l-116 12v301q14 -1 38.5 -2.5t44.5 -2.5t38 -1q46 0 67 11.5t21 39.5q0 12 -33 109z" />
<glyph unicode="z" horiz-adv-x="1110" d="M16 0v233l504 512h-440v316h1003v-242l-493 -502h489v-317h-1063z" />
<glyph unicode="{" horiz-adv-x="679" d="M16 549v201q78 7 117 30q37 20 49.5 58.5t12.5 128.5v290v15q0 123 12 168q12 52 47 90q41 44 90 58.5t156 13.5l155 -3v-194h-30q-50 0 -78 -31q-17 -20 -23 -45q-8 -31 -8 -145v-260q0 -126 -34.5 -182.5t-135.5 -94.5q60 -18 96 -49q42 -35 58 -84t16 -141v-260 q0 -107 10 -146q9 -35 38.5 -56.5t70.5 -21.5h20v-192l-151 -2q-111 -1 -161 13.5t-89 58.5q-35 41 -47 90q-12 54 -12 170v12v293q0 104 -21 147q-19 32 -54.5 48t-103.5 22z" />
<glyph unicode="|" horiz-adv-x="540" d="M111 -295v1890h319v-1890h-319z" />
<glyph unicode="}" horiz-adv-x="679" d="M25 -111h32q48 0 76 31q18 25 23 45q8 33 8 146v262q0 126 34.5 182t135.5 94q-36 11 -54.5 20t-41.5 29q-41 35 -57.5 84.5t-16.5 141.5v260v35.5v29v21.5t-0.5 18.5t-1.5 13.5t-2.5 14t-3.5 13q-9 34 -39.5 56t-71.5 22h-20v192h153q110 0 160 -14t88 -57 q35 -38 47 -88q14 -63 14 -170v-13l-2 -292q0 -108 23 -150q17 -31 52.5 -46t103.5 -21v-201q-73 -7 -117 -31q-36 -20 -49 -59t-13 -127l2 -293v-12q0 -104 -14 -170q-12 -50 -47 -88q-40 -43 -88.5 -57.5t-157.5 -14.5h-155v194z" />
<glyph unicode="~" horiz-adv-x="1482" d="M141 758q53 73 111 125q90 78 215 78q38 0 84 -11q77 -23 151 -57l129 -59q71 -32 101 -42t59 -10q71 0 137 47q54 39 115 115l98 -326q-46 -57 -76 -85.5t-73 -57.5q-91 -59 -186 -59q-49 0 -103.5 17t-146.5 61l-74 34q-137 64 -211 64q-38 0 -68 -12 q-34 -13 -60.5 -37.5t-82.5 -89.5l-20 -25z" />
<glyph unicode="&#xa1;" horiz-adv-x="598" d="M66 0v393l79 525h207l88 -529v-389h-374zM66 1061v385h374v-385h-374z" />
<glyph unicode="&#xa2;" horiz-adv-x="1193" d="M47 508q0 80 17 157t55 149t92.5 129t135 95.5t177.5 48.5v238h207v-235q281 -33 420 -271l-317 -180q-25 70 -50 100q-50 57 -133 58q-89 0 -136.5 -73t-47.5 -208q0 -36 2.5 -64.5t13 -64.5t28 -60t51 -40.5t79.5 -16.5q128 0 192 167q2 5 3 7l323 -176 q-25 -54 -51 -90q-122 -176 -377 -217v-262h-207v262h-14q-116 16 -206 66t-145.5 123.5t-83.5 164t-28 193.5z" />
<glyph unicode="&#xa3;" horiz-adv-x="1492" d="M31 229q0 81 55 150q32 38 75.5 64t86.5 36t70.5 13.5t50.5 3.5q29 0 68.5 -4.5t43.5 -4.5q-27 54 -78 125h-274v207l141 2q-49 63 -67 109q-22 58 -21 125q0 33 6.5 67.5t24.5 79.5t57.5 89.5t96.5 78.5q146 88 393 88q197 0 336 -51q74 -26 129 -70q73 -58 106 -145 q16 -41 24 -85.5t8 -84.5t-1 -88h-365q3 30 2 47q-9 180 -215 180q-44 0 -88 -12q-112 -33 -112 -141q0 -33 16 -71t32.5 -61t43.5 -57h319v-207l-184 -2q53 -89 53 -180q0 -23 -8 -86q2 -1 12.5 -8l15 -10t16 -10t18 -10.5t18 -10t19 -9.5t18 -7.5t18.5 -7t17 -4t16 -1.5 q22 0 38 9t24 21t12.5 32t5 33.5t0.5 35.5q0 44 -8 80h352q3 -195 -14 -274q-12 -50 -32.5 -88t-47.5 -61.5t-47.5 -36t-46.5 -23.5q-72 -29 -154 -29q-62 0 -125 17q-26 7 -51 16t-48.5 20t-41.5 20.5t-38.5 22.5t-30.5 19t-27.5 18t-18.5 13q-50 -45 -63 -54 q-46 -33 -123 -60.5t-177 -27.5q-58 0 -122 17q-20 5 -41 12.5t-53 27t-56 44.5t-41.5 67t-17.5 92zM283 227q1 -29 23.5 -45t53.5 -16q29 0 58 14q29 12 47 30t41 50q-67 37 -127 37q-63 0 -86 -37q-10 -17 -10 -33z" />
<glyph unicode="&#xa4;" horiz-adv-x="1433" d="M45 219l168 168q-90 133 -90 303q0 164 88 314l-164 163l195 195l164 -164q137 88 313 88q86 0 155.5 -20t149.5 -68l166 166l196 -197l-165 -163q86 -147 86 -308q0 -163 -88 -313l165 -168l-196 -195l-166 168q-82 -47 -150.5 -66.5t-154.5 -19.5q-90 0 -161.5 21 t-149.5 70l-166 -168zM446 694q0 -115 78.5 -193.5t192.5 -78.5q112 0 190 78.5t78 191.5q0 117 -77 197t-191 80t-192.5 -79.5t-78.5 -195.5z" />
<glyph unicode="&#xa5;" horiz-adv-x="1622" d="M-6 1430h528l283 -488l280 488h529l-316 -451h156v-250h-332l-90 -129v-14h422v-250h-422v-336h-459v336h-405v250h405v14l-90 129h-315v250h141z" />
<glyph unicode="&#xa6;" horiz-adv-x="540" d="M111 -295v813h319v-813h-319zM111 782v813h319v-813h-319z" />
<glyph unicode="&#xa7;" horiz-adv-x="1280" d="M35 604q0 111 50 186t151 138q-70 90 -70 178q0 83 38 149.5t100.5 106.5t136.5 61t153 21q143 0 276 -45t279 -129l-188 -215q-112 58 -194.5 87t-178.5 29q-84 0 -84 -45q0 -21 24 -41q15 -13 94 -48.5t172.5 -75t112.5 -48.5q61 -29 102.5 -51.5t89 -58t76 -72.5 t47.5 -89.5t19 -113.5v-12q0 -108 -53.5 -185.5t-153.5 -146.5q72 -66 72 -182q0 -67 -25.5 -122.5t-68 -93t-99 -63.5t-116.5 -37.5t-121 -11.5h-6q-78 0 -151 13.5t-145 43t-127.5 58t-135.5 74.5l202 215q76 -43 121 -66t118 -47t134 -24q86 0 86 49q0 5 -1 9t-3 8.5 t-3.5 7.5t-5.5 7.5t-5.5 6l-6.5 6.5l-6 6q-14 13 -95 49.5t-175 77t-113 49.5q-58 27 -100.5 51t-87 59t-72 73t-45.5 90.5t-18 113.5zM354 657q0 -48 56 -96q13 -11 34.5 -24t50.5 -27.5t50.5 -24.5t54.5 -24.5t41 -18.5q35 -16 103.5 -47t103.5 -47q72 64 72 123 q0 25 -17 49.5t-50 45.5t-58.5 35t-65.5 31.5t-49 22.5q-172 82 -256 125q-70 -70 -70 -123z" />
<glyph unicode="&#xa8;" horiz-adv-x="641" d="M-100 1239v244h340v-244h-340zM401 1239v244h340v-244h-340z" />
<glyph unicode="&#xa9;" horiz-adv-x="1705" d="M125 723q0 200 97 367.5t264.5 264.5t367.5 97q196 0 364 -96t266.5 -261t98.5 -358q0 -157 -56 -295t-152.5 -236t-232.5 -155t-290 -57q-198 0 -365.5 97t-264.5 264.5t-97 367.5zM240 721q0 -129 48 -245.5t129.5 -200.5t195 -133.5t239.5 -49.5q165 0 307 83.5 t225.5 226t83.5 307.5q0 135 -47.5 255t-129 205.5t-196 135t-243.5 49.5q-166 0 -307 -84.5t-223 -230.5t-82 -318zM383 725q0 215 134.5 351t348.5 136q120 0 205.5 -37t173.5 -128l-168 -193q-53 59 -97.5 81.5t-107.5 22.5q-97 0 -157 -66t-60 -173q0 -101 59 -163 t156 -62q61 0 104 20.5t105 79.5l166 -188q-92 -91 -178.5 -128.5t-200.5 -37.5q-217 0 -350 134t-133 351z" />
<glyph unicode="&#xaa;" horiz-adv-x="811" d="M39 971q0 78 47 133q17 20 40 35.5t40.5 24t49 16.5t44 10.5t48.5 7.5t40 6q30 5 79.5 15t61.5 12q-2 39 -18.5 56.5t-67.5 17.5q-41 0 -61 -12.5t-27 -55.5h-254q10 61 33 96q82 131 312 131q133 0 213.5 -31t111.5 -106q17 -42 17 -94v-412q0 -19 3.5 -28.5t18.5 -26.5 h-268v53q-76 -69 -211 -69q-57 0 -102.5 14.5t-72.5 37t-45 52.5t-25 58.5t-7 58.5zM291 979q0 -27 20.5 -40t44.5 -13q38 0 72 24q21 15 33.5 29.5t17.5 34.5t6 28t2 35l-75 -24q-78 -20 -98 -33q-23 -16 -23 -41z" />
<glyph unicode="&#xab;" horiz-adv-x="854" d="M66 461v375l321 256v-306l-182 -141l182 -137v-303zM461 461v375l323 256v-306l-184 -141l184 -137v-303z" />
<glyph unicode="&#xac;" horiz-adv-x="1482" d="M137 518v324h1159v-779h-409v455h-750z" />
<glyph unicode="&#xad;" horiz-adv-x="765" d="M59 471v350h646v-350h-646z" />
<glyph unicode="&#xae;" horiz-adv-x="1705" d="M125 723q0 200 97 367.5t264.5 264.5t367.5 97q196 0 364 -96t266.5 -261t98.5 -358q0 -157 -56 -295t-152.5 -236t-232.5 -155t-290 -57q-198 0 -365.5 97t-264.5 264.5t-97 367.5zM240 721q0 -129 48 -245.5t129.5 -200.5t195 -133.5t239.5 -49.5q165 0 307 83.5 t225.5 226t83.5 307.5q0 135 -47.5 255t-129 205.5t-196 135t-243.5 49.5q-166 0 -307 -84.5t-223 -230.5t-82 -318zM520 295v885h287q8 0 20.5 -0.5t35.5 -1.5l46 -2q75 -3 112.5 -11t72.5 -28q139 -80 139 -244q0 -83 -35.5 -142.5t-112.5 -103.5l177 -352h-277l-131 317 h-76v-317h-258zM776 797h76q68 0 96.5 22t28.5 74q0 49 -30.5 71.5t-96.5 22.5h-74v-190z" />
<glyph unicode="&#xaf;" horiz-adv-x="641" d="M-100 1239v191h841v-191h-841z" />
<glyph unicode="&#xb0;" horiz-adv-x="724" d="M10 1174q0 148 102 250t250 102t250.5 -102t102.5 -250q0 -146 -103.5 -250.5t-249.5 -104.5t-249 104t-103 251zM250 1178q0 -46 33.5 -80.5t78.5 -34.5q47 0 81 34t34 81t-33.5 79.5t-81.5 32.5q-47 0 -79.5 -33t-32.5 -79z" />
<glyph unicode="&#xb1;" horiz-adv-x="1482" d="M186 0v315h1108v-315h-1108zM186 1096h353v350h407v-350h350v-312h-352v-364h-407v364h-349z" />
<glyph unicode="&#xb2;" horiz-adv-x="894" d="M41 498v182q114 64 184 107.5t156 109.5l8 7q8 6 20 15.5t25.5 21.5t28.5 26t26 26q56 63 56 119q0 53 -35 78.5t-84 23.5q-109 -4 -109 -127q0 -39 9 -75l-281 35q1 44 4.5 76.5t14 73t27.5 69.5t47 58.5t71 47.5t101 30t136 13q39 1 70.5 -0.5t76 -10t79.5 -23.5 t70.5 -44.5t58.5 -70.5q33 -64 33 -142q0 -59 -20.5 -111t-45 -86.5t-78 -76t-86.5 -62.5t-103 -62q-3 -2 -5 -3h327v-225h-782z" />
<glyph unicode="&#xb3;" horiz-adv-x="894" d="M18 760l263 49q18 -123 147 -123q63 0 93 27.5t30 70.5q0 84 -131 84q-10 0 -29.5 -1t-28.5 -1v191h44h27t27.5 2t30.5 7t23 14t19.5 24.5t5.5 36.5q0 36 -28 60t-83 24q-58 0 -84 -25t-37 -84l-262 14q13 80 37 125q84 166 360 166q182 0 275.5 -69.5t93.5 -190.5 q0 -39 -10 -70t-30.5 -53.5t-37 -35.5t-41.5 -29q146 -54 146 -197q0 -102 -60 -176q-99 -119 -342 -119q-159 0 -252 46.5t-139 146.5q-12 27 -27 86z" />
<glyph unicode="&#xb4;" horiz-adv-x="641" d="M25 1202l157 281h434l-329 -281h-262z" />
<glyph unicode="&#xb5;" horiz-adv-x="1384" d="M106 -442v1501h426v-539q0 -65 15 -127q12 -53 47 -82.5t84 -29.5q68 0 98 55q29 51 35 141q4 74 4 193v389h424v-674q0 -102 70 -102q25 0 59 14v-297q-106 -29 -223 -29q-109 0 -180 43q-32 19 -51 41t-50 76q-25 -80 -63.5 -113.5t-108.5 -33.5q-63 0 -103 28t-65 88 l6 -542h-424z" />
<glyph unicode="&#xb6;" horiz-adv-x="1304" d="M127 1006q0 206 135 329q47 44 103 68q56 25 112 34t160 9h502v-197h-74v-1591h-209v1591h-203v-1591h-211v940q-155 40 -235 143.5t-80 264.5z" />
<glyph unicode="&#xb7;" horiz-adv-x="512" d="M66 403v379h380v-379h-380z" />
<glyph unicode="&#xb8;" horiz-adv-x="641" d="M109 -432l6 113l10.5 -3.5t16 -4t18.5 -1.5q62 0 82 29q6 6 6 18q0 9 -4 15q-12 18 -47 18q-23 0 -78 -12l6 72l135 200l96 -30l-49 -103q80 9 127 -7q48 -15 74 -54q24 -36 24 -84q0 -51 -32 -92q-68 -90 -228 -88h-3.5h-2.5q-69 0 -157 14z" />
<glyph unicode="&#xb9;" horiz-adv-x="894" d="M158 1065v217h18q99 0 143 26.5t66 94.5h246v-905h-283v583q-62 -16 -139 -16h-51z" />
<glyph unicode="&#xba;" horiz-adv-x="854" d="M33 1098q0 176 107 273t284 97q97 0 171.5 -28t116 -69.5t67 -95.5t33 -100t5.5 -90q-3 -69 -24 -125t-50.5 -91t-70.5 -61t-76.5 -39t-77 -20t-62.5 -8.5t-42 -1.5q-165 0 -273 95.5t-108 263.5zM301 1099q0 -10 0.5 -19.5t3 -32.5t11 -41.5t21.5 -37.5t37 -29t56 -9 q115 3 115 176q0 170 -115 170q-39 0 -68 -16q-61 -39 -61 -160v-1z" />
<glyph unicode="&#xbb;" horiz-adv-x="854" d="M66 205v305l184 141l-184 137v304l321 -256v-375zM461 205v305l184 141l-184 137v304l323 -256v-375z" />
<glyph unicode="&#xbc;" horiz-adv-x="2048" d="M158 1065v217h18q99 0 143 26.5t66 94.5h246v-905h-283v583q-62 -16 -139 -16h-51zM627 0l616 1446h189l-619 -1446h-186zM1176 182v180l415 545h279v-526h131v-197h-131v-184h-266v182h-428zM1427 381h179q3 136 8 268q-79 -128 -187 -268z" />
<glyph unicode="&#xbd;" horiz-adv-x="2048" d="M158 1065v217h18q99 0 143 26.5t66 94.5h246v-905h-283v583q-62 -16 -139 -16h-51zM578 0l616 1446h188l-616 -1446h-188zM1192 0v182q82 46 122 69t100 62.5t118 85.5q71 54 108 97q58 65 58 120q0 53 -35.5 78t-85.5 23q-109 -4 -109 -127q0 -20 4.5 -47.5t4.5 -28.5 l-279 35q1 63 7.5 107.5t30.5 97t65 85t116 55.5t180 24q40 0 70.5 -1.5t76 -10t79.5 -23.5t70 -44.5t59 -70.5q35 -63 35 -141q0 -34 -6.5 -65t-15.5 -56t-28.5 -52t-33.5 -45t-43.5 -42t-46.5 -37.5t-53.5 -36.5t-54 -33.5t-58.5 -34.5h327v-225h-782z" />
<glyph unicode="&#xbe;" horiz-adv-x="2048" d="M18 760l263 49q18 -123 147 -123q63 0 93 27.5t30 70.5q0 84 -131 84q-10 0 -29.5 -1t-28.5 -1v191h44h27t27.5 2t30.5 7t23 14t19.5 24.5t5.5 36.5q0 36 -28 60t-83 24q-58 0 -84 -25t-37 -84l-262 14q13 80 37 125q84 166 360 166q182 0 275.5 -69.5t93.5 -190.5 q0 -39 -10 -70t-30.5 -53.5t-37 -35.5t-41.5 -29q146 -54 146 -197q0 -102 -60 -176q-99 -119 -342 -119q-159 0 -252 46.5t-139 146.5q-12 27 -27 86zM627 0l616 1446h189l-619 -1446h-186zM1176 182v180l415 545h279v-526h131v-197h-131v-184h-266v182h-428zM1427 381h179 q3 136 8 268q-79 -128 -187 -268z" />
<glyph unicode="&#xbf;" horiz-adv-x="1236" d="M20 371q0 134 93 233q26 28 68.5 59t96.5 65.5t74 49.5q75 51 97 90q8 13 16 50h356q-7 -76 -20 -115q-7 -20 -20 -41t-28 -39t-33.5 -36t-34.5 -32t-33 -27t-28 -21t-20 -15l-10 -6q-158 -110 -158 -203q0 -47 36.5 -89t115.5 -42q45 0 90 20q60 29 83 79.5t32 129.5 l350 -116q-42 -159 -152 -254q-88 -76 -191.5 -105t-236.5 -29q-111 0 -219 25q-143 38 -233.5 133t-90.5 236zM459 1061v385h372v-385h-372z" />
<glyph unicode="&#xc0;" horiz-adv-x="1622" d="M-2 0l553 1446h520l541 -1446h-492l-63 203h-504l-64 -203h-491zM424 1790h444l131 -246h-268zM651 524h312l-154 510z" />
<glyph unicode="&#xc1;" horiz-adv-x="1622" d="M-2 0l553 1446h520l541 -1446h-492l-63 203h-504l-64 -203h-491zM625 1544l131 246h444l-307 -246h-268zM651 524h312l-154 510z" />
<glyph unicode="&#xc2;" horiz-adv-x="1622" d="M-2 0l553 1446h520l541 -1446h-492l-63 203h-504l-64 -203h-491zM461 1538l190 252h330l195 -252h-293l-70 109l-63 -109h-289zM651 524h312l-154 510z" />
<glyph unicode="&#xc3;" horiz-adv-x="1622" d="M-2 0l553 1446h520l541 -1446h-492l-63 203h-504l-64 -203h-491zM428 1548l12 56q32 145 144 182q27 10 78 10q62 0 182 -24q15 -3 32 -7t25 -5.5t19 -3t22 -1.5q48 0 62 41h217q-12 -67 -25 -104q-51 -146 -215 -146q-62 0 -199 31q-85 18 -98 18q-24 0 -35 -11.5 t-14 -35.5h-207zM651 524h312l-154 510z" />
<glyph unicode="&#xc4;" horiz-adv-x="1622" d="M-2 0l553 1446h520l541 -1446h-492l-63 203h-504l-64 -203h-491zM406 1550v244h339v-244h-339zM651 524h312l-154 510zM877 1550v244h340v-244h-340z" />
<glyph unicode="&#xc5;" horiz-adv-x="1622" d="M-2 0l553 1446h520l541 -1446h-492l-63 203h-504l-64 -203h-491zM569 1700q0 29 13 67q27 69 87 103.5t138 34.5q62 0 117 -25q36 -16 61.5 -41.5t37 -52.5t16.5 -48.5t5 -39.5q0 -23 -6.5 -48.5t-24 -54t-43.5 -51t-69 -37t-96 -14.5q-105 0 -170 59q-66 59 -66 148z M651 524h312l-154 510zM733 1698q0 -28 23 -51q17 -23 51 -23q31 0 52.5 22.5t21.5 53.5q0 30 -22 51t-52 21q-32 0 -53 -21.5t-21 -52.5z" />
<glyph unicode="&#xc6;" horiz-adv-x="2260" d="M-35 0l846 1446h1348v-313h-666v-218h614v-317h-614v-281h737v-317h-1179v205h-465l-105 -205h-516zM750 520h303l6 613z" />
<glyph unicode="&#xc7;" horiz-adv-x="1536" d="M55 696q-3 158 48 302.5t144.5 255.5t237.5 177.5t316 67.5q206 1 363 -77t253 -193q18 -20 34.5 -43.5t24.5 -37t19.5 -32.5t11.5 -20l-383 -191q-44 96 -82 141q-86 100 -221 99q-131 -2 -216 -102t-85 -295q-1 -205 82 -314.5t219 -109.5q177 0 264 155q16 29 33 82 l391 -188q-1 -2 -9.5 -17.5t-18 -32.5t-24 -40t-27.5 -41q-139 -188 -394 -258q-38 -10 -75.5 -16t-75 -9.5t-39.5 -3.5l-35 -92q54 12 82 14q49 1 85.5 -16.5t54 -45.5t25 -53t7.5 -47q0 -88 -72.5 -145t-206.5 -57q-64 0 -149 12l-2 119q27 -9 67 -9q82 0 82 54 q0 19 -17 31t-44 12q-30 0 -90 -25l-2 92l102 158l-18 2q-152 17 -277 83t-207 165t-127.5 224.5t-48.5 264.5z" />
<glyph unicode="&#xc8;" d="M90 0v1446h1145v-318h-686v-215h641v-313h-643v-287h749v-313h-1206zM274 1790h445l131 -246h-268z" />
<glyph unicode="&#xc9;" d="M90 0v1446h1145v-318h-686v-215h641v-313h-643v-287h749v-313h-1206zM475 1544l131 246h445l-306 -246h-270z" />
<glyph unicode="&#xca;" d="M90 0v1446h1145v-318h-686v-215h641v-313h-643v-287h749v-313h-1206zM311 1538l191 252h329l197 -252h-295l-69 109l-64 -109h-289z" />
<glyph unicode="&#xcb;" d="M90 0v1446h1145v-318h-686v-215h641v-313h-643v-287h749v-313h-1206zM262 1550v244h338v-244h-338zM731 1550v244h340v-244h-340z" />
<glyph unicode="&#xcc;" horiz-adv-x="641" d="M-68 1790h445l133 -246h-270zM90 0v1446h459v-1446h-459z" />
<glyph unicode="&#xcd;" horiz-adv-x="641" d="M90 0v1446h459v-1446h-459zM133 1544l133 246h445l-308 -246h-270z" />
<glyph unicode="&#xce;" horiz-adv-x="641" d="M-31 1538l191 252h332l194 -252h-293l-71 109l-62 -109h-291zM90 0v1446h459v-1446h-459z" />
<glyph unicode="&#xcf;" horiz-adv-x="641" d="M-80 1550v244h340v-244h-340zM90 0v1446h459v-1446h-459zM389 1550v244h340v-244h-340z" />
<glyph unicode="&#xd0;" horiz-adv-x="1536" d="M0 614v269h90v563h492q114 0 180 -1.5t175.5 -16t178.5 -42.5q248 -103 332 -387q35 -119 35 -254v-2q-2 -9 0.5 -31t-2 -58.5t-8.5 -80t-18.5 -94.5t-32.5 -101.5t-50 -102t-71 -95t-96.5 -81t-125.5 -60.5q-112 -39 -338 -39h-651v614h-90zM549 332h174q85 0 139 30 q49 27 83 73.5t49.5 100.5t21.5 98.5t6 88.5q0 57 -8 113t-40.5 126.5t-86.5 106.5q-58 39 -166 39h-172v-225h295v-269h-295v-282z" />
<glyph unicode="&#xd1;" horiz-adv-x="1579" d="M90 0v1446h485l490 -842l-6 842h428v-1446h-494l-481 840l4 -840h-426zM408 1548q2 9 5 28t5 28q21 73 48 109q38 53 97 73q27 10 78 10q62 0 180 -24q16 -3 33.5 -7t26 -5.5t19.5 -3t22 -1.5q29 0 41 11.5t18 29.5h219q-13 -73 -24 -104q-11 -27 -24 -48t-37.5 -45.5 t-64.5 -38.5t-92 -14q-59 0 -196 31q-85 18 -98 18q-25 0 -36 -11t-14 -36h-206z" />
<glyph unicode="&#xd2;" horiz-adv-x="1662" d="M53 723q0 38 3 77.5t16 105.5t34.5 126.5t63.5 131t98 126.5q214 209 563 209q348 0 551 -199q39 -38 72.5 -83.5t70.5 -115t59 -164.5t22 -202q0 -47 -6.5 -100.5t-26 -138t-68.5 -173.5t-121 -161q-209 -209 -561 -209q-356 0 -559 207q-103 103 -157 251.5t-54 311.5z M444 1790h445l133 -246h-270zM512 723q0 -198 80 -299q42 -51 96 -76q70 -29 143 -29q132 0 211 91q103 110 103 327q0 263 -154 355q-73 43 -160 43q-133 0 -215 -86q-104 -108 -104 -326z" />
<glyph unicode="&#xd3;" horiz-adv-x="1662" d="M53 723q0 38 3 77.5t16 105.5t34.5 126.5t63.5 131t98 126.5q214 209 563 209q348 0 551 -199q39 -38 72.5 -83.5t70.5 -115t59 -164.5t22 -202q0 -47 -6.5 -100.5t-26 -138t-68.5 -173.5t-121 -161q-209 -209 -561 -209q-356 0 -559 207q-103 103 -157 251.5t-54 311.5z M512 723q0 -198 80 -299q42 -51 96 -76q70 -29 143 -29q132 0 211 91q103 110 103 327q0 263 -154 355q-73 43 -160 43q-133 0 -215 -86q-104 -108 -104 -326zM645 1544l133 246h445l-308 -246h-270z" />
<glyph unicode="&#xd4;" horiz-adv-x="1662" d="M53 723q0 38 3 77.5t16 105.5t34.5 126.5t63.5 131t98 126.5q214 209 563 209q348 0 551 -199q39 -38 72.5 -83.5t70.5 -115t59 -164.5t22 -202q0 -47 -6.5 -100.5t-26 -138t-68.5 -173.5t-121 -161q-209 -209 -561 -209q-356 0 -559 207q-103 103 -157 251.5t-54 311.5z M481 1538l191 252h332l194 -252h-293l-71 109l-62 -109h-291zM512 723q0 -198 80 -299q42 -51 96 -76q70 -29 143 -29q132 0 211 91q103 110 103 327q0 263 -154 355q-73 43 -160 43q-133 0 -215 -86q-104 -108 -104 -326z" />
<glyph unicode="&#xd5;" horiz-adv-x="1662" d="M53 723q0 38 3 77.5t16 105.5t34.5 126.5t63.5 131t98 126.5q214 209 563 209q348 0 551 -199q39 -38 72.5 -83.5t70.5 -115t59 -164.5t22 -202q0 -47 -6.5 -100.5t-26 -138t-68.5 -173.5t-121 -161q-209 -209 -561 -209q-356 0 -559 207q-103 103 -157 251.5t-54 311.5z M451 1548q2 22 10 56q32 142 145 182q31 10 78 10q62 0 180 -24q18 -3 40.5 -8t34 -7t24.5 -2q21 0 34.5 7t18 14.5t8.5 19.5h219q-11 -60 -26 -104q-51 -146 -216 -146q-61 0 -198 31q-81 18 -98 18q-45 0 -48 -47h-206zM512 723q0 -198 80 -299q42 -51 96 -76 q70 -29 143 -29q132 0 211 91q103 110 103 327q0 263 -154 355q-73 43 -160 43q-133 0 -215 -86q-104 -108 -104 -326z" />
<glyph unicode="&#xd6;" horiz-adv-x="1662" d="M53 723q0 38 3 77.5t16 105.5t34.5 126.5t63.5 131t98 126.5q214 209 563 209q348 0 551 -199q39 -38 72.5 -83.5t70.5 -115t59 -164.5t22 -202q0 -47 -6.5 -100.5t-26 -138t-68.5 -173.5t-121 -161q-209 -209 -561 -209q-356 0 -559 207q-103 103 -157 251.5t-54 311.5z M428 1550v244h340v-244h-340zM512 723q0 -198 80 -299q42 -51 96 -76q70 -29 143 -29q132 0 211 91q103 110 103 327q0 263 -154 355q-73 43 -160 43q-133 0 -215 -86q-104 -108 -104 -326zM899 1550v244h338v-244h-338z" />
<glyph unicode="&#xd7;" horiz-adv-x="1482" d="M201 899l276 301l285 -262l237 260l230 -211l-238 -260l293 -268l-274 -301l-293 268l-238 -258l-229 211l235 258z" />
<glyph unicode="&#xd8;" horiz-adv-x="1662" d="M29 102l159 152q-31 46 -49 84q-82 169 -82 385q0 379 244 598q101 90 238 139q123 41 282 41q232 0 381 -71q45 -21 139 -91l164 154l135 -145l-170 -160q46 -71 58 -96q78 -156 78 -353q0 -164 -56.5 -313t-170 -264.5t-267.5 -167.5q-129 -43 -281 -43 q-107 0 -219.5 23.5t-197.5 68.5q-47 26 -95 66l-157 -148zM510 729q0 -56 12 -162l520 490q-15 19 -26 28q-70 56 -178 56q-140 0 -226 -88q-43 -45 -72.5 -126.5t-29.5 -197.5zM616 385q21 -16 33.5 -24.5t39 -22.5t59 -20.5t71.5 -6.5q87 0 158 39q172 95 172 383 q0 68 -10 146z" />
<glyph unicode="&#xd9;" horiz-adv-x="1492" d="M86 588v858h459v-903q0 -72 14 -111q13 -39 38.5 -65t56.5 -36t50.5 -13t38.5 -3q18 0 37.5 3t50.5 13t58 35.5t41 63.5q14 37 14 113v903h461v-866q0 -139 -45 -256q-36 -95 -102 -166.5t-150 -113.5t-176.5 -62.5t-192.5 -20.5q-186 0 -340 68q-205 91 -276 276 q-21 56 -29 114t-8 169zM360 1790h445l131 -246h-270z" />
<glyph unicode="&#xda;" horiz-adv-x="1492" d="M86 588v858h459v-903q0 -72 14 -111q13 -39 38.5 -65t56.5 -36t50.5 -13t38.5 -3q18 0 37.5 3t50.5 13t58 35.5t41 63.5q14 37 14 113v903h461v-866q0 -139 -45 -256q-36 -95 -102 -166.5t-150 -113.5t-176.5 -62.5t-192.5 -20.5q-186 0 -340 68q-205 91 -276 276 q-21 56 -29 114t-8 169zM561 1544l131 246h445l-308 -246h-268z" />
<glyph unicode="&#xdb;" horiz-adv-x="1492" d="M86 588v858h459v-903q0 -72 14 -111q13 -39 38.5 -65t56.5 -36t50.5 -13t38.5 -3q18 0 37.5 3t50.5 13t58 35.5t41 63.5q14 37 14 113v903h461v-866q0 -139 -45 -256q-36 -95 -102 -166.5t-150 -113.5t-176.5 -62.5t-192.5 -20.5q-186 0 -340 68q-205 91 -276 276 q-21 56 -29 114t-8 169zM395 1538l191 252h332l194 -252h-293l-69 109l-64 -109h-291z" />
<glyph unicode="&#xdc;" horiz-adv-x="1492" d="M86 588v858h459v-903q0 -72 14 -111q13 -39 38.5 -65t56.5 -36t50.5 -13t38.5 -3q18 0 37.5 3t50.5 13t58 35.5t41 63.5q14 37 14 113v903h461v-866q0 -139 -45 -256q-36 -95 -102 -166.5t-150 -113.5t-176.5 -62.5t-192.5 -20.5q-186 0 -340 68q-205 91 -276 276 q-21 56 -29 114t-8 169zM340 1550v244h340v-244h-340zM811 1550v244h338v-244h-338z" />
<glyph unicode="&#xdd;" horiz-adv-x="1622" d="M-6 1446h528l285 -481l278 481h529l-582 -838v-608h-459v608zM625 1544l131 246h444l-307 -246h-268z" />
<glyph unicode="&#xde;" horiz-adv-x="1449" d="M90 0v1446h459v-205h366q185 0 283 -43q52 -23 94 -57.5t68 -68.5t44.5 -76t27 -73t13 -68t5 -51.5t0.5 -31.5v-4q-2 -197 -100 -322q-77 -103 -193 -147q-92 -33 -256 -33h-352v-266h-459zM549 569h260q56 0 90 17q96 43 96 170q0 49 -15.5 85.5t-35.5 54t-49.5 28 t-48 12.5t-39.5 2h-258v-369z" />
<glyph unicode="&#xdf;" horiz-adv-x="1280" d="M84 0v932q0 114 14 190t64 146q135 192 493 192q246 0 373 -104q50 -39 84 -103q37 -74 37 -168q0 -135 -72 -204q-24 -24 -61 -45q70 -17 104 -43q111 -86 111 -328q0 -258 -133 -385q-116 -107 -322 -107q-47 0 -87 7.5t-57.5 14.5t-47.5 21v267q61 -41 104 -41 q59 0 96 43q43 53 43 196q0 83 -16 129q-18 55 -57.5 76t-132.5 21v225q24 -6 45 -4q40 6 69 37.5t29 97.5q0 141 -127 141q-43 0 -71 -14.5t-40.5 -42t-17 -55.5t-4.5 -68v-1024h-420z" />
<glyph unicode="&#xe0;" horiz-adv-x="1236" d="M39 317q0 177 145 275q41 27 99 46t96 25.5t108 16.5q121 16 183 29q58 13 82 20q0 30 -7 49q-10 36 -40.5 55t-96.5 19q-31 0 -61 -6q-14 -3 -25 -8.5t-18.5 -13.5t-13 -14t-9.5 -16.5t-5.5 -15t-4 -15t-2.5 -11.5l-395 -11q2 13 7 35t7 29q27 109 117 180 q141 111 442 111q378 0 473 -199q18 -36 24.5 -76t6.5 -112v-578q0 -55 7.5 -77.5t29.5 -53.5h-416v82q-42 -31 -78 -49q-113 -58 -274 -58q-98 0 -170 27q-101 39 -156 122.5t-55 192.5zM270 1483h437l155 -281h-260zM430 330q0 -30 26 -56t79 -26q44 0 102 28 q34 18 57.5 43.5t34 45t16 51.5t5.5 41v37q-103 -35 -160 -50q-108 -24 -141 -65q-19 -29 -19 -49z" />
<glyph unicode="&#xe1;" horiz-adv-x="1236" d="M39 317q0 177 145 275q41 27 99 46t96 25.5t108 16.5q121 16 183 29q58 13 82 20q0 30 -7 49q-10 36 -40.5 55t-96.5 19q-31 0 -61 -6q-14 -3 -25 -8.5t-18.5 -13.5t-13 -14t-9.5 -16.5t-5.5 -15t-4 -15t-2.5 -11.5l-395 -11q2 13 7 35t7 29q27 109 117 180 q141 111 442 111q378 0 473 -199q18 -36 24.5 -76t6.5 -112v-578q0 -55 7.5 -77.5t29.5 -53.5h-416v82q-42 -31 -78 -49q-113 -58 -274 -58q-98 0 -170 27q-101 39 -156 122.5t-55 192.5zM430 330q0 -30 26 -56t79 -26q44 0 102 28q34 18 57.5 43.5t34 45t16 51.5t5.5 41v37 q-103 -35 -160 -50q-108 -24 -141 -65q-19 -29 -19 -49zM471 1202l158 281h434l-330 -281h-262z" />
<glyph unicode="&#xe2;" horiz-adv-x="1236" d="M39 317q0 177 145 275q41 27 99 46t96 25.5t108 16.5q121 16 183 29q58 13 82 20q0 30 -7 49q-10 36 -40.5 55t-96.5 19q-31 0 -61 -6q-14 -3 -25 -8.5t-18.5 -13.5t-13 -14t-9.5 -16.5t-5.5 -15t-4 -15t-2.5 -11.5l-395 -11q2 13 7 35t7 29q27 109 117 180 q141 111 442 111q378 0 473 -199q18 -36 24.5 -76t6.5 -112v-578q0 -55 7.5 -77.5t29.5 -53.5h-416v82q-42 -31 -78 -49q-113 -58 -274 -58q-98 0 -170 27q-101 39 -156 122.5t-55 192.5zM248 1200l217 283h319l213 -283h-292l-84 135l-82 -135h-291zM430 330q0 -30 26 -56 t79 -26q44 0 102 28q34 18 57.5 43.5t34 45t16 51.5t5.5 41v37q-103 -35 -160 -50q-108 -24 -141 -65q-19 -29 -19 -49z" />
<glyph unicode="&#xe3;" horiz-adv-x="1236" d="M39 317q0 177 145 275q41 27 99 46t96 25.5t108 16.5q121 16 183 29q58 13 82 20q0 30 -7 49q-10 36 -40.5 55t-96.5 19q-31 0 -61 -6q-14 -3 -25 -8.5t-18.5 -13.5t-13 -14t-9.5 -16.5t-5.5 -15t-4 -15t-2.5 -11.5l-395 -11q2 13 7 35t7 29q27 109 117 180 q141 111 442 111q378 0 473 -199q18 -36 24.5 -76t6.5 -112v-578q0 -55 7.5 -77.5t29.5 -53.5h-416v82q-42 -31 -78 -49q-113 -58 -274 -58q-98 0 -170 27q-101 39 -156 122.5t-55 192.5zM231 1204q5 46 11 78.5t20.5 75t34.5 68.5t56 44.5t83 18.5q63 0 217 -43 q86 -23 99 -23q42 0 55 33q2 6 2 25h184q-2 -27 -10 -72q-20 -119 -68.5 -166t-121.5 -47q-37 0 -93 11t-85 19.5t-42 12.5q-86 21 -110 21q-26 0 -37 -15t-14 -43zM430 330q0 -30 26 -56t79 -26q44 0 102 28q34 18 57.5 43.5t34 45t16 51.5t5.5 41v37q-103 -35 -160 -50 q-108 -24 -141 -65q-19 -29 -19 -49z" />
<glyph unicode="&#xe4;" horiz-adv-x="1236" d="M39 317q0 177 145 275q41 27 99 46t96 25.5t108 16.5q121 16 183 29q58 13 82 20q0 30 -7 49q-10 36 -40.5 55t-96.5 19q-31 0 -61 -6q-14 -3 -25 -8.5t-18.5 -13.5t-13 -14t-9.5 -16.5t-5.5 -15t-4 -15t-2.5 -11.5l-395 -11q2 13 7 35t7 29q27 109 117 180 q141 111 442 111q378 0 473 -199q18 -36 24.5 -76t6.5 -112v-578q0 -55 7.5 -77.5t29.5 -53.5h-416v82q-42 -31 -78 -49q-113 -58 -274 -58q-98 0 -170 27q-101 39 -156 122.5t-55 192.5zM233 1239v244h342v-244h-342zM430 330q0 -30 26 -56t79 -26q44 0 102 28 q34 18 57.5 43.5t34 45t16 51.5t5.5 41v37q-103 -35 -160 -50q-108 -24 -141 -65q-19 -29 -19 -49zM737 1239v244h338v-244h-338z" />
<glyph unicode="&#xe5;" horiz-adv-x="1236" d="M39 317q0 177 145 275q41 27 99 46t96 25.5t108 16.5q121 16 183 29q58 13 82 20q0 30 -7 49q-10 36 -40.5 55t-96.5 19q-31 0 -61 -6q-14 -3 -25 -8.5t-18.5 -13.5t-13 -14t-9.5 -16.5t-5.5 -15t-4 -15t-2.5 -11.5l-395 -11q2 13 7 35t7 29q27 109 117 180 q141 111 442 111q378 0 473 -199q18 -36 24.5 -76t6.5 -112v-578q0 -55 7.5 -77.5t29.5 -53.5h-416v82q-42 -31 -78 -49q-113 -58 -274 -58q-98 0 -170 27q-101 39 -156 122.5t-55 192.5zM430 330q0 -30 26 -56t79 -26q44 0 102 28q34 18 57.5 43.5t34 45t16 51.5t5.5 41v37 q-103 -35 -160 -50q-108 -24 -141 -65q-19 -29 -19 -49zM430 1411q0 95 67 161t160 66q95 0 161.5 -67.5t66.5 -161.5q0 -93 -67 -159t-161 -66t-161 67q-66 66 -66 160zM584 1411q0 -31 22 -53q21 -21 51 -21q31 0 51.5 22t20.5 52q0 32 -21 53t-51 21q-31 -1 -52 -23 t-21 -51z" />
<glyph unicode="&#xe6;" horiz-adv-x="1921" d="M35 307q0 153 104 246q31 29 67 48.5t81.5 31t77 17t86.5 12.5q176 25 215 32q40 8 86 21q1 21 -0.5 36t-8.5 35.5t-21 33.5t-41.5 22.5t-66.5 9.5q-44 0 -72.5 -8.5t-42.5 -26.5t-19 -33t-9 -41l-397 -8q9 83 35 135q24 49 64 88t79.5 62.5t91.5 40.5t87.5 24.5t82 12 t60 4.5h34.5q180 0 307 -45q34 -11 84 -43q50 30 80 43q107 47 244 47q254 0 416 -168q76 -82 114 -186q38 -106 33 -293h-737q0 -49 6 -78q10 -40 33.5 -67t52.5 -38t49 -14.5t39 -3.5q54 0 92.5 21t57.5 45q23 26 47 75l344 -143q-33 -50 -60.5 -83.5t-68.5 -68.5 q-172 -145 -422 -145q-186 0 -326 82q-11 6 -22 14t-24 17.5t-21 15.5q-42 -23 -58.5 -31.5t-70 -31.5t-95 -34t-106 -21.5t-129.5 -10.5q-97 1 -174 23.5t-124.5 57.5t-78.5 82t-43 93t-12 94zM426 328q0 -17 12 -41q27 -43 97 -43q44 0 89 20t76 53q32 34 44.5 71t17.5 95 q-12 -3 -33 -9.5t-38.5 -11.5t-33.5 -9q-18 -5 -56 -13.5t-58 -13.5q-91 -23 -109 -61q-8 -20 -8 -37zM1157 678h299q0 34 -8 59q-27 92 -137 92q-103 -3 -140 -84q-10 -23 -14 -67z" />
<glyph unicode="&#xe7;" horiz-adv-x="1181" d="M37 537q0 45 6 91.5t23.5 104t45 108.5t74 101t106.5 86t146.5 58t190.5 22q303 0 465 -197q9 -11 18.5 -25t16 -24.5t12 -20t6.5 -10.5l-320 -180q-6 22 -14.5 42t-28.5 50.5t-55.5 49t-81.5 18.5q-90 0 -141.5 -78t-50.5 -213v-1q-3 -5 0 -24.5t4.5 -46t14.5 -56 t30.5 -54t51.5 -41t79 -16.5q134 0 188 175q2 3 2 5l324 -176q-35 -75 -70 -119q-142 -176 -398 -204q-5 -1 -7 -1l-41 -82q36 4 59 4q46 -1 80 -16t52 -38t26 -46.5t8 -46.5q0 -58 -37 -101q-42 -51 -97 -66t-124 -15q-73 0 -164 14l4 113q3 -1 11 -3.5t17 -4t19 -1.5 q36 0 62 12.5t26 34.5q0 33 -51 33q-14 0 -33 -3t-32.5 -6t-14.5 -3l7 72l100 149q-64 0 -143 25q-81 25 -146 70.5t-106.5 100.5t-68.5 121t-38.5 129.5t-11.5 129.5z" />
<glyph unicode="&#xe8;" horiz-adv-x="1236" d="M35 537q0 77 16 147t42.5 121t51.5 85t52 60q53 51 119 85t128.5 48t101.5 18.5t72 4.5q39 0 80.5 -5t107.5 -20t133.5 -54t121.5 -97q76 -82 113 -197q30 -95 30 -278h-739q0 -49 10 -82q7 -19 17 -36.5t29 -37.5t50.5 -32t71.5 -11q75 0 121 41q12 10 23 21.5t19 24 t13 20.5t11 18.5t6 11.5l346 -145q-28 -44 -52 -72q-84 -97 -194 -151q-139 -68 -313 -68q-143 0 -252 45q-160 66 -248 211.5t-88 323.5zM238 1483h436l155 -281h-260zM469 678h307q-1 3 -2 13.5t-2.5 22t-5.5 23.5q-13 40 -42 64.5t-52 30.5t-45 6q-36 -2 -66 -17 q-73 -33 -92 -143z" />
<glyph unicode="&#xe9;" horiz-adv-x="1236" d="M35 537q0 77 16 147t42.5 121t51.5 85t52 60q53 51 119 85t128.5 48t101.5 18.5t72 4.5q39 0 80.5 -5t107.5 -20t133.5 -54t121.5 -97q76 -82 113 -197q30 -95 30 -278h-739q0 -49 10 -82q7 -19 17 -36.5t29 -37.5t50.5 -32t71.5 -11q75 0 121 41q12 10 23 21.5t19 24 t13 20.5t11 18.5t6 11.5l346 -145q-28 -44 -52 -72q-84 -97 -194 -151q-139 -68 -313 -68q-143 0 -252 45q-160 66 -248 211.5t-88 323.5zM418 1202l157 281h435l-330 -281h-262zM469 678h307q-1 3 -2 13.5t-2.5 22t-5.5 23.5q-13 40 -42 64.5t-52 30.5t-45 6 q-36 -2 -66 -17q-73 -33 -92 -143z" />
<glyph unicode="&#xea;" horiz-adv-x="1236" d="M35 537q0 77 16 147t42.5 121t51.5 85t52 60q53 51 119 85t128.5 48t101.5 18.5t72 4.5q39 0 80.5 -5t107.5 -20t133.5 -54t121.5 -97q76 -82 113 -197q30 -95 30 -278h-739q0 -49 10 -82q7 -19 17 -36.5t29 -37.5t50.5 -32t71.5 -11q75 0 121 41q12 10 23 21.5t19 24 t13 20.5t11 18.5t6 11.5l346 -145q-28 -44 -52 -72q-84 -97 -194 -151q-139 -68 -313 -68q-143 0 -252 45q-160 66 -248 211.5t-88 323.5zM248 1200l217 283h319l213 -283h-292l-84 135l-82 -135h-291zM469 678h307q-1 3 -2 13.5t-2.5 22t-5.5 23.5q-13 40 -42 64.5 t-52 30.5t-45 6q-36 -2 -66 -17q-73 -33 -92 -143z" />
<glyph unicode="&#xeb;" horiz-adv-x="1236" d="M35 537q0 77 16 147t42.5 121t51.5 85t52 60q53 51 119 85t128.5 48t101.5 18.5t72 4.5q39 0 80.5 -5t107.5 -20t133.5 -54t121.5 -97q76 -82 113 -197q30 -95 30 -278h-739q0 -49 10 -82q7 -19 17 -36.5t29 -37.5t50.5 -32t71.5 -11q75 0 121 41q12 10 23 21.5t19 24 t13 20.5t11 18.5t6 11.5l346 -145q-28 -44 -52 -72q-84 -97 -194 -151q-139 -68 -313 -68q-143 0 -252 45q-160 66 -248 211.5t-88 323.5zM199 1239v244h340v-244h-340zM469 678h307q-1 3 -2 13.5t-2.5 22t-5.5 23.5q-13 40 -42 64.5t-52 30.5t-45 6q-36 -2 -66 -17 q-73 -33 -92 -143zM700 1239v244h338v-244h-338z" />
<glyph unicode="&#xec;" horiz-adv-x="598" d="M-82 1483h436l156 -281h-260zM86 0v1061h422v-1061h-422z" />
<glyph unicode="&#xed;" horiz-adv-x="598" d="M86 0v1061h422v-1061h-422zM98 1202l156 281h436l-332 -281h-260z" />
<glyph unicode="&#xee;" horiz-adv-x="598" d="M-72 1200l217 283h320l211 -283h-291l-86 135l-82 -135h-289zM86 0v1061h422v-1061h-422z" />
<glyph unicode="&#xef;" horiz-adv-x="598" d="M-123 1239v244h340v-244h-340zM86 0v1061h422v-1061h-422zM381 1239v244h338v-244h-338z" />
<glyph unicode="&#xf0;" d="M41 514q-1 28 0.5 59t15.5 96t40 122.5t82.5 123.5t135.5 113q132 80 281 80q99 0 167 -37.5t122 -101.5q-81 179 -150 258l-344 -78l-31 111l291 67q-34 41 -80 90l293 66q6 -7 18.5 -20.5t18.5 -20.5l41 -47l186 41l37 -113l-141 -31q42 -55 80.5 -117.5t81.5 -152.5 t68.5 -200t25.5 -222q0 -147 -41 -258q-28 -78 -77 -144.5t-122 -121t-177 -86t-228 -31.5q-281 0 -442 164q-48 49 -82 110q-70 127 -70 281zM461 539q-1 -47 6 -89.5t25.5 -89.5t61 -75.5t103.5 -28.5q50 0 87.5 20.5t58 50t32.5 71.5t15 76t2 71q-1 137 -52 201.5 t-145 62.5q-79 -3 -125 -49q-69 -69 -69 -221z" />
<glyph unicode="&#xf1;" d="M84 0v1061h397v-141q27 39 51 63q107 107 299 107q168 0 271 -89q79 -64 106 -184q15 -66 15 -147v-670h-422v580q0 46 -6 71q-24 88 -138 88q-32 0 -57.5 -8t-41 -18.5t-27 -28.5t-16.5 -31t-8 -34.5t-3 -29.5v-24v-565h-420zM272 1204q5 39 10 65.5t14.5 63.5t24 61.5 t35.5 48t52 35t71 11.5q63 0 217 -43q82 -23 99 -23q40 0 53 33q4 12 4 25h184q-2 -12 -5 -36t-5 -36q-20 -119 -68.5 -166t-123.5 -47q-36 0 -91.5 11t-84.5 19.5t-42 12.5q-86 21 -110 21q-26 0 -37 -15t-14 -43z" />
<glyph unicode="&#xf2;" d="M41 522q0 244 145 402q69 74 188.5 128.5t293.5 53.5q33 0 71 -3.5t103.5 -16t134 -44t123.5 -79.5q86 -75 132 -193t46 -242q0 -31 -4 -66t-16 -90.5t-42.5 -115.5t-74.5 -109q-69 -76 -193 -132t-303 -56q-248 0 -407 125q-34 27 -64.5 62t-62.5 88t-51 127.5 t-19 160.5zM281 1483h436l155 -281h-260zM461 535q0 -140 53 -213q25 -37 64 -52q28 -14 79 -14q80 0 127 47q68 68 68 236q0 215 -127 260q-31 10 -70 10q-82 -2 -133 -59q-61 -65 -61 -215z" />
<glyph unicode="&#xf3;" d="M41 522q0 244 145 402q69 74 188.5 128.5t293.5 53.5q33 0 71 -3.5t103.5 -16t134 -44t123.5 -79.5q86 -75 132 -193t46 -242q0 -31 -4 -66t-16 -90.5t-42.5 -115.5t-74.5 -109q-69 -76 -193 -132t-303 -56q-248 0 -407 125q-34 27 -64.5 62t-62.5 88t-51 127.5 t-19 160.5zM461 535q0 -140 53 -213q25 -37 64 -52q28 -14 79 -14q80 0 127 47q68 68 68 236q0 215 -127 260q-31 10 -70 10q-82 -2 -133 -59q-61 -65 -61 -215zM461 1202l155 281h437l-332 -281h-260z" />
<glyph unicode="&#xf4;" d="M41 522q0 244 145 402q69 74 188.5 128.5t293.5 53.5q33 0 71 -3.5t103.5 -16t134 -44t123.5 -79.5q86 -75 132 -193t46 -242q0 -31 -4 -66t-16 -90.5t-42.5 -115.5t-74.5 -109q-69 -76 -193 -132t-303 -56q-248 0 -407 125q-34 27 -64.5 62t-62.5 88t-51 127.5 t-19 160.5zM291 1200l217 283h319l211 -283h-290l-84 135l-82 -135h-291zM461 535q0 -140 53 -213q25 -37 64 -52q28 -14 79 -14q80 0 127 47q68 68 68 236q0 215 -127 260q-31 10 -70 10q-82 -2 -133 -59q-61 -65 -61 -215z" />
<glyph unicode="&#xf5;" d="M41 522q0 244 145 402q69 74 188.5 128.5t293.5 53.5q33 0 71 -3.5t103.5 -16t134 -44t123.5 -79.5q86 -75 132 -193t46 -242q0 -31 -4 -66t-16 -90.5t-42.5 -115.5t-74.5 -109q-69 -76 -193 -132t-303 -56q-248 0 -407 125q-34 27 -64.5 62t-62.5 88t-51 127.5 t-19 160.5zM272 1204q5 39 10 65.5t14.5 63.5t24 61.5t35.5 48t52 35t71 11.5q63 0 217 -43q82 -23 99 -23q42 0 53 33q4 8 4 25h184q-2 -12 -5 -36t-5 -36q-20 -119 -68.5 -166t-123.5 -47q-36 0 -91.5 11t-84.5 19.5t-42 12.5q-86 21 -110 21q-26 0 -37 -15t-14 -43z M461 535q0 -140 53 -213q25 -37 64 -52q28 -14 79 -14q80 0 127 47q68 68 68 236q0 215 -127 260q-31 10 -70 10q-82 -2 -133 -59q-61 -65 -61 -215z" />
<glyph unicode="&#xf6;" d="M41 522q0 244 145 402q69 74 188.5 128.5t293.5 53.5q33 0 71 -3.5t103.5 -16t134 -44t123.5 -79.5q86 -75 132 -193t46 -242q0 -31 -4 -66t-16 -90.5t-42.5 -115.5t-74.5 -109q-69 -76 -193 -132t-303 -56q-248 0 -407 125q-34 27 -64.5 62t-62.5 88t-51 127.5 t-19 160.5zM240 1239v244h340v-244h-340zM461 535q0 -140 53 -213q25 -37 64 -52q28 -14 79 -14q80 0 127 47q68 68 68 236q0 215 -127 260q-31 10 -70 10q-82 -2 -133 -59q-61 -65 -61 -215zM741 1239v244h338v-244h-338z" />
<glyph unicode="&#xf7;" horiz-adv-x="1482" d="M162 514v336h1157v-336h-1157zM557 59v359h361v-359h-361zM559 946v359h361v-359h-361z" />
<glyph unicode="&#xf8;" d="M8 80l123 106q-1 3 -14.5 27t-17 31t-15 31t-15.5 37.5l-12 40.5t-11 49t-6 53t-3 63q0 279 169 438.5t451 159.5q204 0 349 -74q20 -10 69 -45l113 99l92 -107l-109 -94q5 -9 20.5 -33.5t22.5 -38.5q70 -132 70 -299q0 -152 -70 -284q-32 -59 -76.5 -106t-89 -77 t-98.5 -52t-96 -32.5t-90 -17t-72.5 -7.5t-50.5 -1q-190 0 -315 69q-30 14 -101 66l-127 -111zM457 551q0 -55 2 -84l342 295q0 7 -17 20q-43 43 -125 43q-58 0 -99.5 -23t-63 -64t-31 -86.5t-8.5 -100.5zM506 322q14 -27 26 -39q45 -45 130 -45q42 0 75.5 15.5t54 37 t35.5 53.5t22 57t10.5 56t4 41t0.5 22q0 35 -8 109z" />
<glyph unicode="&#xf9;" d="M80 416v645h424v-578v-25.5t2.5 -29t7.5 -34.5t16.5 -30.5t27 -28t41 -17t58.5 -7.5q72 0 109 37q43 45 43 152v561h424v-1061h-402v156q-1 -2 -4.5 -9.5t-5 -10t-5 -9t-5.5 -10t-6.5 -10t-8.5 -11t-9.5 -11t-12 -12.5t-14.5 -12q-105 -88 -279 -88t-280 90 q-74 64 -103 173q-18 64 -18 180zM281 1483h436l155 -281h-260z" />
<glyph unicode="&#xfa;" d="M80 416v645h424v-578v-25.5t2.5 -29t7.5 -34.5t16.5 -30.5t27 -28t41 -17t58.5 -7.5q72 0 109 37q43 45 43 152v561h424v-1061h-402v156q-1 -2 -4.5 -9.5t-5 -10t-5 -9t-5.5 -10t-6.5 -10t-8.5 -11t-9.5 -11t-12 -12.5t-14.5 -12q-105 -88 -279 -88t-280 90 q-74 64 -103 173q-18 64 -18 180zM461 1202l155 281h437l-332 -281h-260z" />
<glyph unicode="&#xfb;" d="M80 416v645h424v-578v-25.5t2.5 -29t7.5 -34.5t16.5 -30.5t27 -28t41 -17t58.5 -7.5q72 0 109 37q43 45 43 152v561h424v-1061h-402v156q-1 -2 -4.5 -9.5t-5 -10t-5 -9t-5.5 -10t-6.5 -10t-8.5 -11t-9.5 -11t-12 -12.5t-14.5 -12q-105 -88 -279 -88t-280 90 q-74 64 -103 173q-18 64 -18 180zM291 1200l217 283h319l211 -283h-290l-84 135l-82 -135h-291z" />
<glyph unicode="&#xfc;" d="M80 416v645h424v-578v-25.5t2.5 -29t7.5 -34.5t16.5 -30.5t27 -28t41 -17t58.5 -7.5q72 0 109 37q43 45 43 152v561h424v-1061h-402v156q-1 -2 -4.5 -9.5t-5 -10t-5 -9t-5.5 -10t-6.5 -10t-8.5 -11t-9.5 -11t-12 -12.5t-14.5 -12q-105 -88 -279 -88t-280 90 q-74 64 -103 173q-18 64 -18 180zM233 1239v244h342v-244h-342zM737 1239v244h338v-244h-338z" />
<glyph unicode="&#xfd;" horiz-adv-x="1193" d="M0 1061h440l152 -692q158 680 160 692h438l-387 -1122q-21 -59 -36.5 -96t-46 -83t-67.5 -77q-30 -24 -60 -38.5t-70 -20t-63 -6.5t-77 -1q-89 0 -107 2l-116 12v301q14 -1 38.5 -2.5t44.5 -2.5t38 -1q46 0 67 11.5t21 39.5q0 12 -33 109zM397 1202l156 281h436 l-332 -281h-260z" />
<glyph unicode="&#xfe;" horiz-adv-x="1280" d="M86 -385v1831h412v-467q29 34 49 49q92 65 239 62q99 -2 178 -36t129.5 -87t84.5 -126t48 -148.5t15 -157.5q1 -90 -14.5 -171.5t-51.5 -155t-91 -126t-138 -82.5t-186 -27q-93 3 -151 27.5t-109 71.5v-457h-414zM496 530q0 -88 15 -144.5t67 -92.5q34 -23 84 -23 q43 0 81 27q49 35 65.5 89t16.5 132q0 28 -1 49t-5.5 54.5t-15 58.5t-27 49t-44.5 38t-64 15q-67 3 -113 -43q-27 -25 -41 -68.5t-16 -71t-2 -69.5z" />
<glyph unicode="&#xff;" horiz-adv-x="1193" d="M0 1061h440l152 -692q158 680 160 692h438l-387 -1122q-21 -59 -36.5 -96t-46 -83t-67.5 -77q-30 -24 -60 -38.5t-70 -20t-63 -6.5t-77 -1q-89 0 -107 2l-116 12v301q14 -1 38.5 -2.5t44.5 -2.5t38 -1q46 0 67 11.5t21 39.5q0 12 -33 109zM176 1239v244h340v-244h-340z M678 1239v244h340v-244h-340z" />
<glyph unicode="&#x152;" horiz-adv-x="2260" d="M63 721q0 306 168 508q95 115 233 178t290 63q127 0 237 -45q21 -9 70 -39v60h1098v-316h-660v-212h615v-316h-615v-287h729v-315h-1167v51q-27 -18 -57 -33q-100 -49 -248 -49q-163 0 -299 62q-50 24 -99 58t-104 94t-96 132.5t-68 178.5t-27 227zM518 721 q0 -89 21 -166q6 -24 15.5 -47.5t32 -58.5t51.5 -61t76.5 -45t104.5 -19q22 0 44 2.5t39.5 6.5t37 10.5t32.5 11t30 13l24 12t20.5 11t14.5 8.5v650q-33 23 -51.5 33.5t-64.5 23t-103 12.5q-67 0 -111 -14q-94 -30 -153.5 -122.5t-59.5 -260.5z" />
<glyph unicode="&#x153;" horiz-adv-x="2048" d="M39 528q0 135 43 235t96 159q29 32 69 61.5t98.5 59t139.5 47.5t172 18q107 0 201.5 -22.5t149.5 -47.5q24 -10 69 -37q51 31 70 41q139 68 299 68q182 -2 331 -91t208 -251q22 -61 31 -125t12 -184h-746q6 -66 22.5 -108t63.5 -68q44 -25 92 -25q42 0 72 12 q12 5 23.5 11t20 11.5t18 13.5t15.5 14t13 15t11 14t9.5 14t7.5 12t6 11l5 9l346 -145q-50 -75 -100 -121q-30 -28 -69.5 -54t-98 -54t-136.5 -45t-163 -17q-187 0 -372 111q-8 4 -11 6q-62 -40 -76 -47q-138 -68 -326 -68q-148 0 -276 47q-162 65 -251 204.5t-89 315.5z M461 532q0 -133 45 -200q24 -35 61 -51q43 -19 88 -19q33 0 66 10q83 30 115 134q18 56 18 145q0 136 -53 201q-26 33 -64 45q-38 16 -80 14q-76 0 -125 -49q-71 -68 -71 -230zM1290 682h303q0 1 -0.5 10.5t-1 14.5t-2.5 16t-4.5 18.5t-7.5 18.5t-11 19.5t-15.5 17.5 t-20.5 16q-38 25 -84 25q-49 0 -87.5 -27t-53.5 -70q-6 -16 -15 -59z" />
<glyph unicode="&#x178;" horiz-adv-x="1622" d="M-6 1446h528l285 -481l278 481h529l-582 -838v-608h-459v608zM410 1550v244h340v-244h-340zM881 1550v244h340v-244h-340z" />
<glyph unicode="&#x2c6;" horiz-adv-x="641" d="M-55 1200l217 283h319l215 -283h-293l-84 135l-81 -135h-293z" />
<glyph unicode="&#x2dc;" horiz-adv-x="641" d="M-61 1204q5 47 10.5 79t20 74.5t35 68.5t56 44.5t82.5 18.5q63 0 217 -43q86 -23 99 -23q44 0 55 33q3 5 3.5 10t-0.5 10l-1 5h186h-2q0 -14 -3.5 -39.5t-4.5 -32.5q-22 -119 -69.5 -166t-120.5 -47q-37 0 -92.5 11t-84.5 19.5t-42 12.5q-86 21 -111 21q-26 0 -37 -15 t-14 -43z" />
<glyph unicode="&#x2000;" horiz-adv-x="952" />
<glyph unicode="&#x2001;" horiz-adv-x="1905" />
<glyph unicode="&#x2002;" horiz-adv-x="952" />
<glyph unicode="&#x2003;" horiz-adv-x="1905" />
<glyph unicode="&#x2004;" horiz-adv-x="635" />
<glyph unicode="&#x2005;" horiz-adv-x="476" />
<glyph unicode="&#x2006;" horiz-adv-x="317" />
<glyph unicode="&#x2007;" horiz-adv-x="317" />
<glyph unicode="&#x2008;" horiz-adv-x="238" />
<glyph unicode="&#x2009;" horiz-adv-x="381" />
<glyph unicode="&#x200a;" horiz-adv-x="105" />
<glyph unicode="&#x2010;" horiz-adv-x="765" d="M59 471v350h646v-350h-646z" />
<glyph unicode="&#x2011;" horiz-adv-x="765" d="M59 471v350h646v-350h-646z" />
<glyph unicode="&#x2012;" horiz-adv-x="765" d="M59 471v350h646v-350h-646z" />
<glyph unicode="&#x2013;" horiz-adv-x="1288" d="M59 471v350h1170v-350h-1170z" />
<glyph unicode="&#x2014;" horiz-adv-x="1941" d="M59 471v350h1821v-350h-1821z" />
<glyph unicode="&#x2018;" horiz-adv-x="512" d="M70 702v308q0 73 9 129.5t32.5 110t67.5 94.5t110 69q60 24 153 39v-182q-71 -23 -98 -64t-29 -119h127v-385h-372z" />
<glyph unicode="&#x2019;" horiz-adv-x="512" d="M70 698v181q71 24 98 64t29 118h-127v385h372v-309q0 -72 -9.5 -128.5t-33 -110t-67.5 -94.5t-109 -69q-52 -21 -153 -37z" />
<glyph unicode="&#x201a;" horiz-adv-x="512" d="M70 0v385h372v-309q0 -72 -9.5 -128.5t-33 -110t-67.5 -94.5t-109 -69q-48 -19 -153 -36v180q71 24 98 64t29 118h-127z" />
<glyph unicode="&#x201c;" horiz-adv-x="1067" d="M84 702v308q0 73 9 129.5t32.5 110t68 94.5t109.5 69q60 25 156 39v-182q-71 -23 -98 -64t-29 -119h127v-385h-375zM606 702v308q0 73 9 129.5t32.5 110t67.5 94.5t110 69q59 24 154 39v-182q-71 -23 -98 -64t-29 -119h127v-385h-373z" />
<glyph unicode="&#x201d;" horiz-adv-x="1067" d="M84 698v181q71 24 98 64t29 118h-127v385h375v-309q0 -72 -9.5 -128.5t-33 -110t-67.5 -94.5t-109 -69q-50 -20 -156 -37zM606 698v181q71 24 98 64t29 118h-127v385h373v-309q0 -72 -9.5 -128.5t-33 -110t-67.5 -94.5t-109 -69q-51 -21 -154 -37z" />
<glyph unicode="&#x201e;" horiz-adv-x="1067" d="M84 0v385h375v-309q0 -72 -9.5 -128.5t-33 -110t-67.5 -94.5t-109 -69q-46 -19 -156 -36v180q71 24 98 64t29 118h-127zM606 0v385h373v-309q0 -72 -9.5 -128.5t-33 -110t-67.5 -94.5t-109 -69q-47 -19 -154 -36v180q71 24 98 64t29 118h-127z" />
<glyph unicode="&#x2022;" horiz-adv-x="681" d="M78 449v528h526v-528h-526z" />
<glyph unicode="&#x2026;" horiz-adv-x="2048" d="M195 0v287h290v-287h-290zM881 0v287h288v-287h-288zM1561 0v287h290v-287h-290z" />
<glyph unicode="&#x202f;" horiz-adv-x="381" />
<glyph unicode="&#x2039;" horiz-adv-x="468" d="M72 461v375l321 256v-306l-182 -141l182 -137v-303z" />
<glyph unicode="&#x203a;" horiz-adv-x="468" d="M72 205v305l184 141l-184 137v304l321 -256v-375z" />
<glyph unicode="&#x205f;" horiz-adv-x="476" />
<glyph unicode="&#x20ac;" horiz-adv-x="1466" d="M68 498l57 166h86l2 81l-137 -2l57 168h103q36 171 137 294t245.5 184t319.5 61q144 0 249.5 -28.5t213.5 -104.5l-129 -348q-63 71 -132 104t-159 33q-101 0 -174 -50t-100 -145h544l-61 -168l-510 2q-6 -41 -6 -81h487l-61 -166h-395q29 -91 112.5 -138t186.5 -47 q93 0 180 40t145 110l2 -426q-163 -82 -373 -82q-371 0 -552 190q-137 143 -177 353h-161z" />
<glyph unicode="&#x2122;" horiz-adv-x="1533" d="M31 1296v150h547v-150h-166v-530h-209v530h-172zM649 766l2 680h291l96 -436l97 436h290l2 -680h-196l8 471l-119 -471h-164l-112 469l4 -469h-199z" />
<glyph unicode="&#x25fc;" horiz-adv-x="1064" d="M0 0v1065h1065v-1065h-1065z" />
</font>
</defs>
</svg>
